<?xml version="1.0" standalone="no"?>
<!DOCTYPE svg PUBLIC "-//W3C//DTD SVG 1.1//EN" "http://www.w3.org/Graphics/SVG/1.1/DTD/svg11.dtd">
<svg version="1.1" width="1200" height="326" onload="init(evt)" viewBox="0 0 1200 326" xmlns="http://www.w3.org/2000/svg" xmlns:xlink="http://www.w3.org/1999/xlink">
<!-- Flame graph stack visualization. See https://github.com/brendangregg/FlameGraph for latest version, and http://www.brendangregg.com/flamegraphs.html for examples. -->
<!-- NOTES:  -->
<defs>
	<linearGradient id="background" y1="0" y2="1" x1="0" x2="0" >
		<stop stop-color="#eeeeee" offset="5%" />
		<stop stop-color="#eeeeb0" offset="95%" />
	</linearGradient>
</defs>
<style type="text/css">
	text { font-family:Verdana; font-size:12px; fill:rgb(0,0,0); }
	#search, #ignorecase { opacity:0.1; cursor:pointer; }
	#search:hover, #search.show, #ignorecase:hover, #ignorecase.show { opacity:1; }
	#subtitle { text-anchor:middle; font-color:rgb(160,160,160); }
	#title { text-anchor:middle; font-size:17px}
	#unzoom { cursor:pointer; }
	#frames > *:hover { stroke:black; stroke-width:0.5; cursor:pointer; }
	.hide { display:none; }
	.parent { opacity:0.5; }
</style>
<script type="text/ecmascript">
<![CDATA[
	"use strict";
	var details, searchbtn, unzoombtn, matchedtxt, svg, searching, currentSearchTerm, ignorecase, ignorecaseBtn;
	function init(evt) {
		details = document.getElementById("details").firstChild;
		searchbtn = document.getElementById("search");
		ignorecaseBtn = document.getElementById("ignorecase");
		unzoombtn = document.getElementById("unzoom");
		matchedtxt = document.getElementById("matched");
		svg = document.getElementsByTagName("svg")[0];
		searching = 0;
		currentSearchTerm = null;
	}

	window.addEventListener("click", function(e) {
		var target = find_group(e.target);
		if (target) {
			if (target.nodeName == "a") {
				if (e.ctrlKey === false) return;
				e.preventDefault();
			}
			if (target.classList.contains("parent")) unzoom();
			zoom(target);
		}
		else if (e.target.id == "unzoom") unzoom();
		else if (e.target.id == "search") search_prompt();
		else if (e.target.id == "ignorecase") toggle_ignorecase();
	}, false)

	// mouse-over for info
	// show
	window.addEventListener("mouseover", function(e) {
		var target = find_group(e.target);
		if (target) details.nodeValue = "Function: " + g_to_text(target);
	}, false)

	// clear
	window.addEventListener("mouseout", function(e) {
		var target = find_group(e.target);
		if (target) details.nodeValue = ' ';
	}, false)

	// ctrl-F for search
	window.addEventListener("keydown",function (e) {
		if (e.keyCode === 114 || (e.ctrlKey && e.keyCode === 70)) {
			e.preventDefault();
			search_prompt();
		}
	}, false)

	// ctrl-I to toggle case-sensitive search
	window.addEventListener("keydown",function (e) {
		if (e.ctrlKey && e.keyCode === 73) {
			e.preventDefault();
			toggle_ignorecase();
		}
	}, false)

	// functions
	function find_child(node, selector) {
		var children = node.querySelectorAll(selector);
		if (children.length) return children[0];
		return;
	}
	function find_group(node) {
		var parent = node.parentElement;
		if (!parent) return;
		if (parent.id == "frames") return node;
		return find_group(parent);
	}
	function orig_save(e, attr, val) {
		if (e.attributes["_orig_" + attr] != undefined) return;
		if (e.attributes[attr] == undefined) return;
		if (val == undefined) val = e.attributes[attr].value;
		e.setAttribute("_orig_" + attr, val);
	}
	function orig_load(e, attr) {
		if (e.attributes["_orig_"+attr] == undefined) return;
		e.attributes[attr].value = e.attributes["_orig_" + attr].value;
		e.removeAttribute("_orig_"+attr);
	}
	function g_to_text(e) {
		var text = find_child(e, "title").firstChild.nodeValue;
		return (text)
	}
	function g_to_func(e) {
		var func = g_to_text(e);
		// if there's any manipulation we want to do to the function
		// name before it's searched, do it here before returning.
		return (func);
	}
	function update_text(e) {
		var r = find_child(e, "rect");
		var t = find_child(e, "text");
		var w = parseFloat(r.attributes.width.value) -3;
		var txt = find_child(e, "title").textContent.replace(/\([^(]*\)$/,"");
		t.attributes.x.value = parseFloat(r.attributes.x.value) + 3;

		// Smaller than this size won't fit anything
		if (w < 2 * 12 * 0.59) {
			t.textContent = "";
			return;
		}

		t.textContent = txt;
		// Fit in full text width
		if (/^ *$/.test(txt) || t.getSubStringLength(0, txt.length) < w)
			return;

		for (var x = txt.length - 2; x > 0; x--) {
			if (t.getSubStringLength(0, x + 2) <= w) {
				t.textContent = txt.substring(0, x) + "..";
				return;
			}
		}
		t.textContent = "";
	}

	// zoom
	function zoom_reset(e) {
		if (e.attributes != undefined) {
			orig_load(e, "x");
			orig_load(e, "width");
		}
		if (e.childNodes == undefined) return;
		for (var i = 0, c = e.childNodes; i < c.length; i++) {
			zoom_reset(c[i]);
		}
	}
	function zoom_child(e, x, ratio) {
		if (e.attributes != undefined) {
			if (e.attributes.x != undefined) {
				orig_save(e, "x");
				e.attributes.x.value = (parseFloat(e.attributes.x.value) - x - 10) * ratio + 10;
				if (e.tagName == "text")
					e.attributes.x.value = find_child(e.parentNode, "rect[x]").attributes.x.value + 3;
			}
			if (e.attributes.width != undefined) {
				orig_save(e, "width");
				e.attributes.width.value = parseFloat(e.attributes.width.value) * ratio;
			}
		}

		if (e.childNodes == undefined) return;
		for (var i = 0, c = e.childNodes; i < c.length; i++) {
			zoom_child(c[i], x - 10, ratio);
		}
	}
	function zoom_parent(e) {
		if (e.attributes) {
			if (e.attributes.x != undefined) {
				orig_save(e, "x");
				e.attributes.x.value = 10;
			}
			if (e.attributes.width != undefined) {
				orig_save(e, "width");
				e.attributes.width.value = parseInt(svg.width.baseVal.value) - (10 * 2);
			}
		}
		if (e.childNodes == undefined) return;
		for (var i = 0, c = e.childNodes; i < c.length; i++) {
			zoom_parent(c[i]);
		}
	}
	function zoom(node) {
		var attr = find_child(node, "rect").attributes;
		var width = parseFloat(attr.width.value);
		var xmin = parseFloat(attr.x.value);
		var xmax = parseFloat(xmin + width);
		var ymin = parseFloat(attr.y.value);
		var ratio = (svg.width.baseVal.value - 2 * 10) / width;

		// XXX: Workaround for JavaScript float issues (fix me)
		var fudge = 0.0001;

		unzoombtn.classList.remove("hide");

		var el = document.getElementById("frames").children;
		for (var i = 0; i < el.length; i++) {
			var e = el[i];
			var a = find_child(e, "rect").attributes;
			var ex = parseFloat(a.x.value);
			var ew = parseFloat(a.width.value);
			var upstack;
			// Is it an ancestor
			if (0 == 0) {
				upstack = parseFloat(a.y.value) > ymin;
			} else {
				upstack = parseFloat(a.y.value) < ymin;
			}
			if (upstack) {
				// Direct ancestor
				if (ex <= xmin && (ex+ew+fudge) >= xmax) {
					e.classList.add("parent");
					zoom_parent(e);
					update_text(e);
				}
				// not in current path
				else
					e.classList.add("hide");
			}
			// Children maybe
			else {
				// no common path
				if (ex < xmin || ex + fudge >= xmax) {
					e.classList.add("hide");
				}
				else {
					zoom_child(e, xmin, ratio);
					update_text(e);
				}
			}
		}
		search();
	}
	function unzoom() {
		unzoombtn.classList.add("hide");
		var el = document.getElementById("frames").children;
		for(var i = 0; i < el.length; i++) {
			el[i].classList.remove("parent");
			el[i].classList.remove("hide");
			zoom_reset(el[i]);
			update_text(el[i]);
		}
		search();
	}

	// search
	function toggle_ignorecase() {
		ignorecase = !ignorecase;
		if (ignorecase) {
			ignorecaseBtn.classList.add("show");
		} else {
			ignorecaseBtn.classList.remove("show");
		}
		reset_search();
		search();
	}
	function reset_search() {
		var el = document.querySelectorAll("#frames rect");
		for (var i = 0; i < el.length; i++) {
			orig_load(el[i], "fill")
		}
	}
	function search_prompt() {
		if (!searching) {
			var term = prompt("Enter a search term (regexp " +
			    "allowed, eg: ^ext4_)"
			    + (ignorecase ? ", ignoring case" : "")
			    + "\nPress Ctrl-i to toggle case sensitivity", "");
			if (term != null) {
				currentSearchTerm = term;
				search();
			}
		} else {
			reset_search();
			searching = 0;
			currentSearchTerm = null;
			searchbtn.classList.remove("show");
			searchbtn.firstChild.nodeValue = "Search"
			matchedtxt.classList.add("hide");
			matchedtxt.firstChild.nodeValue = ""
		}
	}
	function search(term) {
		if (currentSearchTerm === null) return;
		var term = currentSearchTerm;

		var re = new RegExp(term, ignorecase ? 'i' : '');
		var el = document.getElementById("frames").children;
		var matches = new Object();
		var maxwidth = 0;
		for (var i = 0; i < el.length; i++) {
			var e = el[i];
			var func = g_to_func(e);
			var rect = find_child(e, "rect");
			if (func == null || rect == null)
				continue;

			// Save max width. Only works as we have a root frame
			var w = parseFloat(rect.attributes.width.value);
			if (w > maxwidth)
				maxwidth = w;

			if (func.match(re)) {
				// highlight
				var x = parseFloat(rect.attributes.x.value);
				orig_save(rect, "fill");
				rect.attributes.fill.value = "rgb(230,0,230)";

				// remember matches
				if (matches[x] == undefined) {
					matches[x] = w;
				} else {
					if (w > matches[x]) {
						// overwrite with parent
						matches[x] = w;
					}
				}
				searching = 1;
			}
		}
		if (!searching)
			return;

		searchbtn.classList.add("show");
		searchbtn.firstChild.nodeValue = "Reset Search";

		// calculate percent matched, excluding vertical overlap
		var count = 0;
		var lastx = -1;
		var lastw = 0;
		var keys = Array();
		for (k in matches) {
			if (matches.hasOwnProperty(k))
				keys.push(k);
		}
		// sort the matched frames by their x location
		// ascending, then width descending
		keys.sort(function(a, b){
			return a - b;
		});
		// Step through frames saving only the biggest bottom-up frames
		// thanks to the sort order. This relies on the tree property
		// where children are always smaller than their parents.
		var fudge = 0.0001;	// JavaScript floating point
		for (var k in keys) {
			var x = parseFloat(keys[k]);
			var w = matches[keys[k]];
			if (x >= lastx + lastw - fudge) {
				count += w;
				lastx = x;
				lastw = w;
			}
		}
		// display matched percent
		matchedtxt.classList.remove("hide");
		var pct = 100 * count / maxwidth;
		if (pct != 100) pct = pct.toFixed(1)
		matchedtxt.firstChild.nodeValue = "Matched: " + pct + "%";
	}
]]>
</script>
<rect x="0.0" y="0" width="1200.0" height="326.0" fill="url(#background)"  />
<text id="title" x="600.00" y="24" >Flame Graph</text>
<text id="details" x="10.00" y="309" > </text>
<text id="unzoom" x="10.00" y="24" class="hide">Reset Zoom</text>
<text id="search" x="1090.00" y="24" >Search</text>
<text id="ignorecase" x="1174.00" y="24" >ic</text>
<text id="matched" x="1090.00" y="309" > </text>
<g id="frames">
<g >
<title>threadpool_add_job (17 samples, 0.15%)</title><rect x="188.6" y="197" width="1.8" height="15.0" fill="rgb(219,183,15)" rx="2" ry="2" />
<text  x="191.59" y="207.5" ></text>
</g>
<g >
<title>sys_futex (5 samples, 0.04%)</title><rect x="264.2" y="197" width="0.6" height="15.0" fill="rgb(222,115,52)" rx="2" ry="2" />
<text  x="267.24" y="207.5" ></text>
</g>
<g >
<title>pty_write (3 samples, 0.03%)</title><rect x="10.0" y="101" width="0.3" height="15.0" fill="rgb(248,168,20)" rx="2" ry="2" />
<text  x="13.00" y="111.5" ></text>
</g>
<g >
<title>do_syscall_64 (476 samples, 4.27%)</title><rect x="213.9" y="197" width="50.3" height="15.0" fill="rgb(206,136,34)" rx="2" ry="2" />
<text  x="216.88" y="207.5" >do_sy..</text>
</g>
<g >
<title>finish_task_switch (35 samples, 0.31%)</title><rect x="12.5" y="53" width="3.7" height="15.0" fill="rgb(247,54,46)" rx="2" ry="2" />
<text  x="15.54" y="63.5" ></text>
</g>
<g >
<title>pthread_mutex_unlock (38 samples, 0.34%)</title><rect x="184.6" y="197" width="4.0" height="15.0" fill="rgb(229,162,9)" rx="2" ry="2" />
<text  x="187.57" y="207.5" ></text>
</g>
<g >
<title>get_futex_key (1 samples, 0.01%)</title><rect x="182.2" y="101" width="0.2" height="15.0" fill="rgb(208,156,48)" rx="2" ry="2" />
<text  x="185.24" y="111.5" ></text>
</g>
<g >
<title>__lock_text_start (1 samples, 0.01%)</title><rect x="473.6" y="117" width="0.1" height="15.0" fill="rgb(247,189,6)" rx="2" ry="2" />
<text  x="476.62" y="127.5" ></text>
</g>
<g >
<title>_int_free (118 samples, 1.06%)</title><rect x="190.6" y="229" width="12.5" height="15.0" fill="rgb(211,16,45)" rx="2" ry="2" />
<text  x="193.60" y="239.5" ></text>
</g>
<g >
<title>mark_wake_futex (36 samples, 0.32%)</title><rect x="283.6" y="133" width="3.8" height="15.0" fill="rgb(224,81,6)" rx="2" ry="2" />
<text  x="286.60" y="143.5" ></text>
</g>
<g >
<title>do_futex (1 samples, 0.01%)</title><rect x="29.7" y="149" width="0.1" height="15.0" fill="rgb(218,171,9)" rx="2" ry="2" />
<text  x="32.68" y="159.5" ></text>
</g>
<g >
<title>exit_to_usermode_loop (1 samples, 0.01%)</title><rect x="1189.6" y="149" width="0.1" height="15.0" fill="rgb(235,63,3)" rx="2" ry="2" />
<text  x="1192.58" y="159.5" ></text>
</g>
<g >
<title>futex_wait_queue_me (38 samples, 0.34%)</title><rect x="12.2" y="101" width="4.0" height="15.0" fill="rgb(236,112,23)" rx="2" ry="2" />
<text  x="15.22" y="111.5" ></text>
</g>
<g >
<title>get_futex_value_locked (14 samples, 0.13%)</title><rect x="262.4" y="117" width="1.5" height="15.0" fill="rgb(208,138,42)" rx="2" ry="2" />
<text  x="265.44" y="127.5" ></text>
</g>
<g >
<title>futex_wait (1,115 samples, 10.00%)</title><rect x="64.7" y="117" width="118.0" height="15.0" fill="rgb(239,63,24)" rx="2" ry="2" />
<text  x="67.70" y="127.5" >futex_wait</text>
</g>
<g >
<title>__GI___libc_write (3 samples, 0.03%)</title><rect x="10.0" y="229" width="0.3" height="15.0" fill="rgb(223,157,45)" rx="2" ry="2" />
<text  x="13.00" y="239.5" ></text>
</g>
<g >
<title>prepare_exit_to_usermode (1 samples, 0.01%)</title><rect x="1189.6" y="165" width="0.1" height="15.0" fill="rgb(252,99,8)" rx="2" ry="2" />
<text  x="1192.58" y="175.5" ></text>
</g>
<g >
<title>pthread_mutex_lock (16 samples, 0.14%)</title><rect x="182.9" y="197" width="1.7" height="15.0" fill="rgb(218,107,13)" rx="2" ry="2" />
<text  x="185.88" y="207.5" ></text>
</g>
<g >
<title>do_futex (92 samples, 0.82%)</title><rect x="30.2" y="133" width="9.7" height="15.0" fill="rgb(220,159,5)" rx="2" ry="2" />
<text  x="33.21" y="143.5" ></text>
</g>
<g >
<title>get_futex_value_locked (17 samples, 0.15%)</title><rect x="180.4" y="85" width="1.8" height="15.0" fill="rgb(205,24,11)" rx="2" ry="2" />
<text  x="183.45" y="95.5" ></text>
</g>
<g >
<title>irq_exit (1 samples, 0.01%)</title><rect x="697.7" y="53" width="0.1" height="15.0" fill="rgb(206,40,54)" rx="2" ry="2" />
<text  x="700.71" y="63.5" ></text>
</g>
<g >
<title>__vfs_write (3 samples, 0.03%)</title><rect x="10.0" y="149" width="0.3" height="15.0" fill="rgb(211,33,38)" rx="2" ry="2" />
<text  x="13.00" y="159.5" ></text>
</g>
<g >
<title>__schedule (1,011 samples, 9.06%)</title><rect x="70.5" y="69" width="107.0" height="15.0" fill="rgb(239,33,15)" rx="2" ry="2" />
<text  x="73.52" y="79.5" >__schedule</text>
</g>
<g >
<title>wake_up_q (1,396 samples, 12.52%)</title><rect x="287.4" y="133" width="147.7" height="15.0" fill="rgb(207,194,34)" rx="2" ry="2" />
<text  x="290.41" y="143.5" >wake_up_q</text>
</g>
<g >
<title>futex_wait_setup (45 samples, 0.40%)</title><rect x="177.5" y="101" width="4.7" height="15.0" fill="rgb(253,107,13)" rx="2" ry="2" />
<text  x="180.48" y="111.5" ></text>
</g>
<g >
<title>sys_write (3 samples, 0.03%)</title><rect x="10.0" y="181" width="0.3" height="15.0" fill="rgb(229,160,26)" rx="2" ry="2" />
<text  x="13.00" y="191.5" ></text>
</g>
<g >
<title>get_futex_key_refs.isra.9 (2 samples, 0.02%)</title><rect x="180.2" y="69" width="0.2" height="15.0" fill="rgb(217,140,54)" rx="2" ry="2" />
<text  x="183.23" y="79.5" ></text>
</g>
<g >
<title>_raw_spin_lock (4 samples, 0.04%)</title><rect x="67.6" y="101" width="0.4" height="15.0" fill="rgb(205,59,5)" rx="2" ry="2" />
<text  x="70.56" y="111.5" ></text>
</g>
<g >
<title>sys_futex (49 samples, 0.44%)</title><rect x="12.1" y="149" width="5.2" height="15.0" fill="rgb(250,189,28)" rx="2" ry="2" />
<text  x="15.12" y="159.5" ></text>
</g>
<g >
<title>futex_wake (86 samples, 0.77%)</title><rect x="30.6" y="117" width="9.1" height="15.0" fill="rgb(236,215,44)" rx="2" ry="2" />
<text  x="33.63" y="127.5" ></text>
</g>
<g >
<title>native_queued_spin_lock_slowpath (4 samples, 0.04%)</title><rect x="31.3" y="85" width="0.4" height="15.0" fill="rgb(230,101,16)" rx="2" ry="2" />
<text  x="34.27" y="95.5" ></text>
</g>
<g >
<title>__lll_lock_wait (66 samples, 0.59%)</title><rect x="10.5" y="197" width="7.0" height="15.0" fill="rgb(208,51,46)" rx="2" ry="2" />
<text  x="13.53" y="207.5" ></text>
</g>
<g >
<title>work (3 samples, 0.03%)</title><rect x="1189.7" y="229" width="0.3" height="15.0" fill="rgb(223,205,4)" rx="2" ry="2" />
<text  x="1192.68" y="239.5" ></text>
</g>
<g >
<title>__lock_text_start (57 samples, 0.51%)</title><rect x="33.7" y="69" width="6.0" height="15.0" fill="rgb(213,137,25)" rx="2" ry="2" />
<text  x="36.70" y="79.5" ></text>
</g>
<g >
<title>threadpool_function (4,512 samples, 40.46%)</title><rect x="712.3" y="229" width="477.4" height="15.0" fill="rgb(213,1,2)" rx="2" ry="2" />
<text  x="715.31" y="239.5" >threadpool_function</text>
</g>
<g >
<title>get_futex_value_locked (6 samples, 0.05%)</title><rect x="464.8" y="133" width="0.7" height="15.0" fill="rgb(222,39,12)" rx="2" ry="2" />
<text  x="467.84" y="143.5" ></text>
</g>
<g >
<title>rcu_all_qs (2 samples, 0.02%)</title><rect x="69.5" y="85" width="0.2" height="15.0" fill="rgb(231,103,6)" rx="2" ry="2" />
<text  x="72.46" y="95.5" ></text>
</g>
<g >
<title>sys_futex (7 samples, 0.06%)</title><rect x="39.9" y="165" width="0.8" height="15.0" fill="rgb(218,3,27)" rx="2" ry="2" />
<text  x="42.94" y="175.5" ></text>
</g>
<g >
<title>get_futex_key (6 samples, 0.05%)</title><rect x="283.0" y="133" width="0.6" height="15.0" fill="rgb(246,48,40)" rx="2" ry="2" />
<text  x="285.97" y="143.5" ></text>
</g>
<g >
<title>sys_futex (1,135 samples, 10.18%)</title><rect x="62.6" y="149" width="120.1" height="15.0" fill="rgb(235,165,15)" rx="2" ry="2" />
<text  x="65.58" y="159.5" >sys_futex</text>
</g>
<g >
<title>_raw_spin_lock (10 samples, 0.09%)</title><rect x="455.0" y="149" width="1.1" height="15.0" fill="rgb(211,159,7)" rx="2" ry="2" />
<text  x="458.00" y="159.5" ></text>
</g>
<g >
<title>__schedule (330 samples, 2.96%)</title><rect x="223.3" y="101" width="34.9" height="15.0" fill="rgb(245,93,36)" rx="2" ry="2" />
<text  x="226.30" y="111.5" >__..</text>
</g>
<g >
<title>__schedule (1 samples, 0.01%)</title><rect x="222.4" y="117" width="0.2" height="15.0" fill="rgb(214,208,8)" rx="2" ry="2" />
<text  x="225.45" y="127.5" ></text>
</g>
<g >
<title>get_futex_key_refs.isra.9 (16 samples, 0.14%)</title><rect x="31.8" y="85" width="1.7" height="15.0" fill="rgb(215,117,22)" rx="2" ry="2" />
<text  x="34.80" y="95.5" ></text>
</g>
<g >
<title>get_futex_key (4 samples, 0.04%)</title><rect x="180.0" y="85" width="0.4" height="15.0" fill="rgb(218,24,28)" rx="2" ry="2" />
<text  x="183.02" y="95.5" ></text>
</g>
<g >
<title>swapgs_restore_regs_and_return_to_usermode (1 samples, 0.01%)</title><rect x="1189.6" y="181" width="0.1" height="15.0" fill="rgb(248,98,33)" rx="2" ry="2" />
<text  x="1192.58" y="191.5" ></text>
</g>
<g >
<title>get_futex_key (4 samples, 0.04%)</title><rect x="262.0" y="117" width="0.4" height="15.0" fill="rgb(251,207,35)" rx="2" ry="2" />
<text  x="265.02" y="127.5" ></text>
</g>
<g >
<title>futex_wait_setup (10 samples, 0.09%)</title><rect x="16.2" y="101" width="1.1" height="15.0" fill="rgb(229,79,30)" rx="2" ry="2" />
<text  x="19.24" y="111.5" ></text>
</g>
<g >
<title>wake_q_add (7 samples, 0.06%)</title><rect x="286.7" y="117" width="0.7" height="15.0" fill="rgb(205,134,39)" rx="2" ry="2" />
<text  x="289.67" y="127.5" ></text>
</g>
<g >
<title>entry_SYSCALL_64_after_hwframe (57 samples, 0.51%)</title><rect x="11.5" y="181" width="6.0" height="15.0" fill="rgb(247,82,19)" rx="2" ry="2" />
<text  x="14.48" y="191.5" ></text>
</g>
<g >
<title>native_queued_spin_lock_slowpath (14 samples, 0.13%)</title><rect x="260.5" y="101" width="1.5" height="15.0" fill="rgb(209,87,9)" rx="2" ry="2" />
<text  x="263.54" y="111.5" ></text>
</g>
<g >
<title>n_tty_write (3 samples, 0.03%)</title><rect x="10.0" y="117" width="0.3" height="15.0" fill="rgb(247,196,31)" rx="2" ry="2" />
<text  x="13.00" y="127.5" ></text>
</g>
<g >
<title>do_syscall_64 (1,193 samples, 10.70%)</title><rect x="56.4" y="165" width="126.3" height="15.0" fill="rgb(207,106,15)" rx="2" ry="2" />
<text  x="59.45" y="175.5" >do_syscall_64</text>
</g>
<g >
<title>rcu_all_qs (2 samples, 0.02%)</title><rect x="222.9" y="117" width="0.2" height="15.0" fill="rgb(212,17,18)" rx="2" ry="2" />
<text  x="225.87" y="127.5" ></text>
</g>
<g >
<title>get_futex_key (17 samples, 0.15%)</title><rect x="31.7" y="101" width="1.8" height="15.0" fill="rgb(226,75,18)" rx="2" ry="2" />
<text  x="34.69" y="111.5" ></text>
</g>
<g >
<title>tty_flip_buffer_push (3 samples, 0.03%)</title><rect x="10.0" y="85" width="0.3" height="15.0" fill="rgb(215,207,36)" rx="2" ry="2" />
<text  x="13.00" y="95.5" ></text>
</g>
<g >
<title>entry_SYSCALL_64_after_hwframe (2,390 samples, 21.43%)</title><rect x="446.1" y="213" width="252.9" height="15.0" fill="rgb(227,140,27)" rx="2" ry="2" />
<text  x="449.11" y="223.5" >entry_SYSCALL_64_after_hwframe</text>
</g>
<g >
<title>smp_call_function_single_interrupt (1 samples, 0.01%)</title><rect x="697.7" y="69" width="0.1" height="15.0" fill="rgb(234,222,29)" rx="2" ry="2" />
<text  x="700.71" y="79.5" ></text>
</g>
<g >
<title>_raw_spin_lock (2 samples, 0.02%)</title><rect x="463.5" y="133" width="0.2" height="15.0" fill="rgb(251,180,22)" rx="2" ry="2" />
<text  x="466.46" y="143.5" ></text>
</g>
<g >
<title>__pthread_enable_asynccancel (3 samples, 0.03%)</title><rect x="41.3" y="197" width="0.3" height="15.0" fill="rgb(235,165,32)" rx="2" ry="2" />
<text  x="44.32" y="207.5" ></text>
</g>
<g >
<title>get_futex_value_locked (1 samples, 0.01%)</title><rect x="182.4" y="101" width="0.1" height="15.0" fill="rgb(224,225,3)" rx="2" ry="2" />
<text  x="185.35" y="111.5" ></text>
</g>
<g >
<title>pthread_mutex_unlock (57 samples, 0.51%)</title><rect x="706.3" y="229" width="6.0" height="15.0" fill="rgb(234,119,47)" rx="2" ry="2" />
<text  x="709.28" y="239.5" ></text>
</g>
<g >
<title>wake_up_q (1 samples, 0.01%)</title><rect x="39.8" y="117" width="0.1" height="15.0" fill="rgb(250,147,29)" rx="2" ry="2" />
<text  x="42.84" y="127.5" ></text>
</g>
<g >
<title>queue_work_on (3 samples, 0.03%)</title><rect x="10.0" y="69" width="0.3" height="15.0" fill="rgb(244,72,0)" rx="2" ry="2" />
<text  x="13.00" y="79.5" ></text>
</g>
<g >
<title>smp_apic_timer_interrupt (1 samples, 0.01%)</title><rect x="1189.5" y="165" width="0.1" height="15.0" fill="rgb(205,49,2)" rx="2" ry="2" />
<text  x="1192.47" y="175.5" ></text>
</g>
<g >
<title>sys_futex (3 samples, 0.03%)</title><rect x="698.7" y="197" width="0.3" height="15.0" fill="rgb(229,34,48)" rx="2" ry="2" />
<text  x="701.66" y="207.5" ></text>
</g>
<g >
<title>do_for_test (4,463 samples, 40.02%)</title><rect x="717.5" y="197" width="472.2" height="15.0" fill="rgb(251,84,12)" rx="2" ry="2" />
<text  x="720.49" y="207.5" >do_for_test</text>
</g>
<g >
<title>pthread_cond_broadcast@@GLIBC_2.3.2 (2,462 samples, 22.07%)</title><rect x="438.5" y="229" width="260.5" height="15.0" fill="rgb(248,119,34)" rx="2" ry="2" />
<text  x="441.49" y="239.5" >pthread_cond_broadcast@@GLIBC_2.3.2</text>
</g>
<g >
<title>_raw_spin_lock (4 samples, 0.04%)</title><rect x="31.3" y="101" width="0.4" height="15.0" fill="rgb(210,125,0)" rx="2" ry="2" />
<text  x="34.27" y="111.5" ></text>
</g>
<g >
<title>wake_q_add (8 samples, 0.07%)</title><rect x="472.0" y="117" width="0.9" height="15.0" fill="rgb(235,42,27)" rx="2" ry="2" />
<text  x="475.03" y="127.5" ></text>
</g>
<g >
<title>free (18 samples, 0.16%)</title><rect x="436.6" y="229" width="1.9" height="15.0" fill="rgb(221,24,22)" rx="2" ry="2" />
<text  x="439.59" y="239.5" ></text>
</g>
<g >
<title>schedule (1,019 samples, 9.14%)</title><rect x="69.7" y="85" width="107.8" height="15.0" fill="rgb(240,12,26)" rx="2" ry="2" />
<text  x="72.67" y="95.5" >schedule</text>
</g>
<g >
<title>__lll_unlock_wake (219 samples, 1.96%)</title><rect x="17.5" y="197" width="23.2" height="15.0" fill="rgb(218,68,7)" rx="2" ry="2" />
<text  x="20.51" y="207.5" >_..</text>
</g>
<g >
<title>[unknown] (1,825 samples, 16.36%)</title><rect x="10.0" y="245" width="193.1" height="15.0" fill="rgb(227,163,46)" rx="2" ry="2" />
<text  x="13.00" y="255.5" >[unknown]</text>
</g>
<g >
<title>do_futex (413 samples, 3.70%)</title><rect x="220.5" y="165" width="43.7" height="15.0" fill="rgb(246,155,35)" rx="2" ry="2" />
<text  x="223.54" y="175.5" >do_f..</text>
</g>
<g >
<title>do_for_test (3 samples, 0.03%)</title><rect x="717.1" y="213" width="0.3" height="15.0" fill="rgb(242,22,41)" rx="2" ry="2" />
<text  x="720.07" y="223.5" ></text>
</g>
<g >
<title>futex_wait_queue_me (340 samples, 3.05%)</title><rect x="222.2" y="133" width="36.0" height="15.0" fill="rgb(240,103,17)" rx="2" ry="2" />
<text  x="225.24" y="143.5" >fut..</text>
</g>
<g >
<title>do_syscall_64 (3 samples, 0.03%)</title><rect x="10.0" y="197" width="0.3" height="15.0" fill="rgb(229,43,7)" rx="2" ry="2" />
<text  x="13.00" y="207.5" ></text>
</g>
<g >
<title>__lock_text_start (1,394 samples, 12.50%)</title><rect x="287.6" y="101" width="147.5" height="15.0" fill="rgb(240,51,48)" rx="2" ry="2" />
<text  x="290.62" y="111.5" >__lock_text_start</text>
</g>
<g >
<title>__lll_unlock_wake (1,622 samples, 14.54%)</title><rect x="264.8" y="229" width="171.6" height="15.0" fill="rgb(232,220,38)" rx="2" ry="2" />
<text  x="267.77" y="239.5" >__lll_unlock_wake</text>
</g>
<g >
<title>do_futex (2,311 samples, 20.72%)</title><rect x="454.2" y="165" width="244.5" height="15.0" fill="rgb(206,206,12)" rx="2" ry="2" />
<text  x="457.15" y="175.5" >do_futex</text>
</g>
<g >
<title>irq_exit (1 samples, 0.01%)</title><rect x="1189.5" y="149" width="0.1" height="15.0" fill="rgb(213,10,34)" rx="2" ry="2" />
<text  x="1192.47" y="159.5" ></text>
</g>
<g >
<title>__lll_lock_wait (528 samples, 4.73%)</title><rect x="208.9" y="229" width="55.9" height="15.0" fill="rgb(238,138,39)" rx="2" ry="2" />
<text  x="211.91" y="239.5" >__lll..</text>
</g>
<g >
<title>_raw_spin_lock (8 samples, 0.07%)</title><rect x="278.4" y="149" width="0.9" height="15.0" fill="rgb(249,87,49)" rx="2" ry="2" />
<text  x="281.42" y="159.5" ></text>
</g>
<g >
<title>vfs_write (3 samples, 0.03%)</title><rect x="10.0" y="165" width="0.3" height="15.0" fill="rgb(221,57,29)" rx="2" ry="2" />
<text  x="13.00" y="175.5" ></text>
</g>
<g >
<title>get_futex_key_refs.isra.9 (4 samples, 0.04%)</title><rect x="262.0" y="101" width="0.4" height="15.0" fill="rgb(213,42,54)" rx="2" ry="2" />
<text  x="265.02" y="111.5" ></text>
</g>
<g >
<title>apic_timer_interrupt (1 samples, 0.01%)</title><rect x="1189.5" y="181" width="0.1" height="15.0" fill="rgb(223,199,34)" rx="2" ry="2" />
<text  x="1192.47" y="191.5" ></text>
</g>
<g >
<title>do_syscall_64 (167 samples, 1.50%)</title><rect x="22.3" y="165" width="17.6" height="15.0" fill="rgb(224,220,5)" rx="2" ry="2" />
<text  x="25.27" y="175.5" ></text>
</g>
<g >
<title>futex_wake (1,473 samples, 13.21%)</title><rect x="279.3" y="149" width="155.8" height="15.0" fill="rgb(207,170,36)" rx="2" ry="2" />
<text  x="282.26" y="159.5" >futex_wake</text>
</g>
<g >
<title>tty_write (3 samples, 0.03%)</title><rect x="10.0" y="133" width="0.3" height="15.0" fill="rgb(232,186,32)" rx="2" ry="2" />
<text  x="13.00" y="143.5" ></text>
</g>
<g >
<title>put_pi_state (1 samples, 0.01%)</title><rect x="698.6" y="149" width="0.1" height="15.0" fill="rgb(222,138,19)" rx="2" ry="2" />
<text  x="701.55" y="159.5" ></text>
</g>
<g >
<title>entry_SYSCALL_64_after_hwframe (1,570 samples, 14.08%)</title><rect x="270.3" y="213" width="166.1" height="15.0" fill="rgb(246,88,25)" rx="2" ry="2" />
<text  x="273.27" y="223.5" >entry_SYSCALL_64_afte..</text>
</g>
<g >
<title>wake_q_add (1 samples, 0.01%)</title><rect x="472.9" y="133" width="0.1" height="15.0" fill="rgb(209,133,40)" rx="2" ry="2" />
<text  x="475.88" y="143.5" ></text>
</g>
<g >
<title>schedule (332 samples, 2.98%)</title><rect x="223.1" y="117" width="35.1" height="15.0" fill="rgb(241,106,37)" rx="2" ry="2" />
<text  x="226.08" y="127.5" >sc..</text>
</g>
<g >
<title>__softirqentry_text_start (1 samples, 0.01%)</title><rect x="697.7" y="37" width="0.1" height="15.0" fill="rgb(225,183,32)" rx="2" ry="2" />
<text  x="700.71" y="47.5" ></text>
</g>
<g >
<title>get_futex_key_refs.isra.9 (4 samples, 0.04%)</title><rect x="283.2" y="117" width="0.4" height="15.0" fill="rgb(212,133,20)" rx="2" ry="2" />
<text  x="286.18" y="127.5" ></text>
</g>
<g >
<title>drop_futex_key_refs.isra.15 (1 samples, 0.01%)</title><rect x="456.1" y="149" width="0.1" height="15.0" fill="rgb(222,89,48)" rx="2" ry="2" />
<text  x="459.06" y="159.5" ></text>
</g>
<g >
<title>futex_wait (413 samples, 3.70%)</title><rect x="220.5" y="149" width="43.7" height="15.0" fill="rgb(233,172,38)" rx="2" ry="2" />
<text  x="223.54" y="159.5" >fute..</text>
</g>
<g >
<title>__lock_text_start (2,116 samples, 18.97%)</title><rect x="473.9" y="101" width="223.9" height="15.0" fill="rgb(221,5,50)" rx="2" ry="2" />
<text  x="476.94" y="111.5" >__lock_text_start</text>
</g>
<g >
<title>sys_futex (2 samples, 0.02%)</title><rect x="17.3" y="165" width="0.2" height="15.0" fill="rgb(250,77,51)" rx="2" ry="2" />
<text  x="20.30" y="175.5" ></text>
</g>
<g >
<title>__pthread_mutex_cond_lock (18 samples, 0.16%)</title><rect x="41.6" y="197" width="1.9" height="15.0" fill="rgb(215,26,48)" rx="2" ry="2" />
<text  x="44.63" y="207.5" ></text>
</g>
<g >
<title>__libc_start_main (1,704 samples, 15.28%)</title><rect x="10.3" y="229" width="180.3" height="15.0" fill="rgb(245,216,18)" rx="2" ry="2" />
<text  x="13.32" y="239.5" >__libc_start_main</text>
</g>
<g >
<title>_raw_spin_lock (1 samples, 0.01%)</title><rect x="30.5" y="117" width="0.1" height="15.0" fill="rgb(252,9,49)" rx="2" ry="2" />
<text  x="33.53" y="127.5" ></text>
</g>
<g >
<title>get_futex_key (1 samples, 0.01%)</title><rect x="16.9" y="85" width="0.1" height="15.0" fill="rgb(217,17,35)" rx="2" ry="2" />
<text  x="19.88" y="95.5" ></text>
</g>
<g >
<title>hash_futex (1 samples, 0.01%)</title><rect x="39.7" y="117" width="0.1" height="15.0" fill="rgb(223,188,14)" rx="2" ry="2" />
<text  x="42.73" y="127.5" ></text>
</g>
<g >
<title>plist_del (1 samples, 0.01%)</title><rect x="471.9" y="101" width="0.1" height="15.0" fill="rgb(222,20,29)" rx="2" ry="2" />
<text  x="474.93" y="111.5" ></text>
</g>
<g >
<title>try_to_wake_up (2,118 samples, 18.99%)</title><rect x="473.7" y="117" width="224.1" height="15.0" fill="rgb(222,16,16)" rx="2" ry="2" />
<text  x="476.73" y="127.5" >try_to_wake_up</text>
</g>
<g >
<title>try_to_wake_up (57 samples, 0.51%)</title><rect x="33.7" y="85" width="6.0" height="15.0" fill="rgb(208,17,28)" rx="2" ry="2" />
<text  x="36.70" y="95.5" ></text>
</g>
<g >
<title>hash_futex (5 samples, 0.04%)</title><rect x="698.0" y="149" width="0.6" height="15.0" fill="rgb(234,162,51)" rx="2" ry="2" />
<text  x="701.02" y="159.5" ></text>
</g>
<g >
<title>do_syscall_64 (55 samples, 0.49%)</title><rect x="11.5" y="165" width="5.8" height="15.0" fill="rgb(250,161,3)" rx="2" ry="2" />
<text  x="14.48" y="175.5" ></text>
</g>
<g >
<title>_raw_spin_lock (5 samples, 0.04%)</title><rect x="221.7" y="133" width="0.5" height="15.0" fill="rgb(252,52,27)" rx="2" ry="2" />
<text  x="224.71" y="143.5" ></text>
</g>
<g >
<title>wake_up_q (2,125 samples, 19.05%)</title><rect x="473.0" y="133" width="224.8" height="15.0" fill="rgb(227,41,51)" rx="2" ry="2" />
<text  x="475.99" y="143.5" >wake_up_q</text>
</g>
<g >
<title>do_syscall_64 (1,564 samples, 14.02%)</title><rect x="270.3" y="197" width="165.4" height="15.0" fill="rgb(247,43,21)" rx="2" ry="2" />
<text  x="273.27" y="207.5" >do_syscall_64</text>
</g>
<g >
<title>get_futex_key_refs.isra.9 (2 samples, 0.02%)</title><rect x="33.5" y="101" width="0.2" height="15.0" fill="rgb(237,96,33)" rx="2" ry="2" />
<text  x="36.49" y="111.5" ></text>
</g>
<g >
<title>native_queued_spin_lock_slowpath (2 samples, 0.02%)</title><rect x="463.5" y="117" width="0.2" height="15.0" fill="rgb(235,51,22)" rx="2" ry="2" />
<text  x="466.46" y="127.5" ></text>
</g>
<g >
<title>start_thread (9,273 samples, 83.14%)</title><rect x="208.9" y="245" width="981.1" height="15.0" fill="rgb(251,28,14)" rx="2" ry="2" />
<text  x="211.91" y="255.5" >start_thread</text>
</g>
<g >
<title>try_to_wake_up (1,395 samples, 12.51%)</title><rect x="287.5" y="117" width="147.6" height="15.0" fill="rgb(243,93,17)" rx="2" ry="2" />
<text  x="290.52" y="127.5" >try_to_wake_up</text>
</g>
<g >
<title>sys_futex (420 samples, 3.77%)</title><rect x="219.8" y="181" width="44.4" height="15.0" fill="rgb(245,77,47)" rx="2" ry="2" />
<text  x="222.80" y="191.5" >sys_..</text>
</g>
<g >
<title>futex_wait_setup (54 samples, 0.48%)</title><rect x="258.2" y="133" width="5.7" height="15.0" fill="rgb(209,207,37)" rx="2" ry="2" />
<text  x="261.21" y="143.5" ></text>
</g>
<g >
<title>entry_SYSCALL_64_after_hwframe (481 samples, 4.31%)</title><rect x="213.9" y="213" width="50.9" height="15.0" fill="rgb(245,0,17)" rx="2" ry="2" />
<text  x="216.88" y="223.5" >entry..</text>
</g>
<g >
<title>_raw_spin_lock (6 samples, 0.05%)</title><rect x="282.3" y="133" width="0.7" height="15.0" fill="rgb(208,1,40)" rx="2" ry="2" />
<text  x="285.33" y="143.5" ></text>
</g>
<g >
<title>hash_futex (5 samples, 0.04%)</title><rect x="435.2" y="149" width="0.5" height="15.0" fill="rgb(237,91,54)" rx="2" ry="2" />
<text  x="438.21" y="159.5" ></text>
</g>
<g >
<title>sys_futex (6 samples, 0.05%)</title><rect x="435.7" y="197" width="0.7" height="15.0" fill="rgb(213,123,30)" rx="2" ry="2" />
<text  x="438.74" y="207.5" ></text>
</g>
<g >
<title>get_futex_key (2 samples, 0.02%)</title><rect x="697.8" y="149" width="0.2" height="15.0" fill="rgb(251,217,46)" rx="2" ry="2" />
<text  x="700.81" y="159.5" ></text>
</g>
<g >
<title>all (11,153 samples, 100%)</title><rect x="10.0" y="277" width="1180.0" height="15.0" fill="rgb(215,84,54)" rx="2" ry="2" />
<text  x="13.00" y="287.5" ></text>
</g>
<g >
<title>do_syscall_64 (2,387 samples, 21.40%)</title><rect x="446.1" y="197" width="252.6" height="15.0" fill="rgb(239,128,43)" rx="2" ry="2" />
<text  x="449.11" y="207.5" >do_syscall_64</text>
</g>
<g >
<title>main (1,702 samples, 15.26%)</title><rect x="10.3" y="213" width="180.1" height="15.0" fill="rgb(222,146,32)" rx="2" ry="2" />
<text  x="13.32" y="223.5" >main</text>
</g>
<g >
<title>call_function_single_interrupt (1 samples, 0.01%)</title><rect x="697.7" y="85" width="0.1" height="15.0" fill="rgb(235,98,1)" rx="2" ry="2" />
<text  x="700.71" y="95.5" ></text>
</g>
<g >
<title>do_futex (49 samples, 0.44%)</title><rect x="12.1" y="133" width="5.2" height="15.0" fill="rgb(249,102,5)" rx="2" ry="2" />
<text  x="15.12" y="143.5" ></text>
</g>
<g >
<title>get_futex_value_locked (3 samples, 0.03%)</title><rect x="17.0" y="85" width="0.3" height="15.0" fill="rgb(214,92,4)" rx="2" ry="2" />
<text  x="19.98" y="95.5" ></text>
</g>
<g >
<title>sys_futex (96 samples, 0.86%)</title><rect x="29.8" y="149" width="10.1" height="15.0" fill="rgb(252,105,39)" rx="2" ry="2" />
<text  x="32.78" y="159.5" ></text>
</g>
<g >
<title>finish_task_switch (325 samples, 2.91%)</title><rect x="223.8" y="85" width="34.4" height="15.0" fill="rgb(250,177,10)" rx="2" ry="2" />
<text  x="226.82" y="95.5" >fi..</text>
</g>
<g >
<title>futex_wait_queue_me (1,035 samples, 9.28%)</title><rect x="68.0" y="101" width="109.5" height="15.0" fill="rgb(243,130,16)" rx="2" ry="2" />
<text  x="70.98" y="111.5" >futex_wait_qu..</text>
</g>
<g >
<title>__unqueue_futex (18 samples, 0.16%)</title><rect x="470.1" y="117" width="1.9" height="15.0" fill="rgb(213,59,36)" rx="2" ry="2" />
<text  x="473.13" y="127.5" ></text>
</g>
<g >
<title>work (4,464 samples, 40.03%)</title><rect x="717.4" y="213" width="472.3" height="15.0" fill="rgb(211,98,12)" rx="2" ry="2" />
<text  x="720.39" y="223.5" >work</text>
</g>
<g >
<title>__pthread_disable_asynccancel (6 samples, 0.05%)</title><rect x="40.7" y="197" width="0.6" height="15.0" fill="rgb(249,163,27)" rx="2" ry="2" />
<text  x="43.68" y="207.5" ></text>
</g>
<g >
<title>pthread_cond_wait@@GLIBC_2.3.2 (1,297 samples, 11.63%)</title><rect x="45.7" y="197" width="137.2" height="15.0" fill="rgb(209,59,0)" rx="2" ry="2" />
<text  x="48.65" y="207.5" >pthread_cond_wait..</text>
</g>
<g >
<title>get_futex_key (11 samples, 0.10%)</title><rect x="463.7" y="133" width="1.1" height="15.0" fill="rgb(212,172,18)" rx="2" ry="2" />
<text  x="466.68" y="143.5" ></text>
</g>
<g >
<title>entry_SYSCALL_64_after_hwframe (3 samples, 0.03%)</title><rect x="10.0" y="213" width="0.3" height="15.0" fill="rgb(213,81,3)" rx="2" ry="2" />
<text  x="13.00" y="223.5" ></text>
</g>
<g >
<title>pthread_mutex_lock@plt (1 samples, 0.01%)</title><rect x="706.2" y="229" width="0.1" height="15.0" fill="rgb(207,27,39)" rx="2" ry="2" />
<text  x="709.17" y="239.5" ></text>
</g>
<g >
<title>futex_wait (49 samples, 0.44%)</title><rect x="12.1" y="117" width="5.2" height="15.0" fill="rgb(225,63,17)" rx="2" ry="2" />
<text  x="15.12" y="127.5" ></text>
</g>
<g >
<title>_int_free (2 samples, 0.02%)</title><rect x="436.4" y="229" width="0.2" height="15.0" fill="rgb(245,181,2)" rx="2" ry="2" />
<text  x="439.38" y="239.5" ></text>
</g>
<g >
<title>hash_futex (1 samples, 0.01%)</title><rect x="182.5" y="101" width="0.1" height="15.0" fill="rgb(249,141,32)" rx="2" ry="2" />
<text  x="185.46" y="111.5" ></text>
</g>
<g >
<title>__unqueue_futex (15 samples, 0.13%)</title><rect x="285.1" y="117" width="1.6" height="15.0" fill="rgb(209,78,44)" rx="2" ry="2" />
<text  x="288.08" y="127.5" ></text>
</g>
<g >
<title>plist_add (2 samples, 0.02%)</title><rect x="12.2" y="85" width="0.2" height="15.0" fill="rgb(229,187,9)" rx="2" ry="2" />
<text  x="15.22" y="95.5" ></text>
</g>
<g >
<title>native_queued_spin_lock_slowpath (6 samples, 0.05%)</title><rect x="282.3" y="117" width="0.7" height="15.0" fill="rgb(221,27,47)" rx="2" ry="2" />
<text  x="285.33" y="127.5" ></text>
</g>
<g >
<title>futex_requeue (2,284 samples, 20.48%)</title><rect x="456.2" y="149" width="241.6" height="15.0" fill="rgb(211,224,4)" rx="2" ry="2" />
<text  x="459.16" y="159.5" >futex_requeue</text>
</g>
<g >
<title>finish_task_switch (1,004 samples, 9.00%)</title><rect x="71.3" y="53" width="106.2" height="15.0" fill="rgb(245,203,38)" rx="2" ry="2" />
<text  x="74.26" y="63.5" >finish_task_s..</text>
</g>
<g >
<title>threadpool (11,153 samples, 100.00%)</title><rect x="10.0" y="261" width="1180.0" height="15.0" fill="rgb(250,82,19)" rx="2" ry="2" />
<text  x="13.00" y="271.5" >threadpool</text>
</g>
<g >
<title>rcu_all_qs (1 samples, 0.01%)</title><rect x="12.4" y="85" width="0.1" height="15.0" fill="rgb(217,193,30)" rx="2" ry="2" />
<text  x="15.43" y="95.5" ></text>
</g>
<g >
<title>schedule (1 samples, 0.01%)</title><rect x="182.6" y="101" width="0.1" height="15.0" fill="rgb(225,73,53)" rx="2" ry="2" />
<text  x="185.56" y="111.5" ></text>
</g>
<g >
<title>malloc (31 samples, 0.28%)</title><rect x="205.6" y="245" width="3.3" height="15.0" fill="rgb(243,90,43)" rx="2" ry="2" />
<text  x="208.63" y="255.5" ></text>
</g>
<g >
<title>_raw_spin_lock (14 samples, 0.13%)</title><rect x="260.5" y="117" width="1.5" height="15.0" fill="rgb(245,216,41)" rx="2" ry="2" />
<text  x="263.54" y="127.5" ></text>
</g>
<g >
<title>sys_futex (2 samples, 0.02%)</title><rect x="182.7" y="165" width="0.2" height="15.0" fill="rgb(240,126,9)" rx="2" ry="2" />
<text  x="185.67" y="175.5" ></text>
</g>
<g >
<title>malloc (15 samples, 0.13%)</title><rect x="44.1" y="197" width="1.6" height="15.0" fill="rgb(216,171,17)" rx="2" ry="2" />
<text  x="47.07" y="207.5" ></text>
</g>
<g >
<title>mark_wake_futex (70 samples, 0.63%)</title><rect x="465.5" y="133" width="7.4" height="15.0" fill="rgb(254,36,31)" rx="2" ry="2" />
<text  x="468.47" y="143.5" ></text>
</g>
<g >
<title>threadpool_add_job (2 samples, 0.02%)</title><rect x="190.4" y="213" width="0.2" height="15.0" fill="rgb(244,225,11)" rx="2" ry="2" />
<text  x="193.39" y="223.5" ></text>
</g>
<g >
<title>get_futex_key_refs.isra.9 (7 samples, 0.06%)</title><rect x="464.1" y="117" width="0.7" height="15.0" fill="rgb(224,81,21)" rx="2" ry="2" />
<text  x="467.10" y="127.5" ></text>
</g>
<g >
<title>entry_SYSCALL_64_after_hwframe (174 samples, 1.56%)</title><rect x="22.3" y="181" width="18.4" height="15.0" fill="rgb(253,197,52)" rx="2" ry="2" />
<text  x="25.27" y="191.5" ></text>
</g>
<g >
<title>__pthread_mutex_unlock_usercnt (5 samples, 0.04%)</title><rect x="43.5" y="197" width="0.6" height="15.0" fill="rgb(215,140,31)" rx="2" ry="2" />
<text  x="46.54" y="207.5" ></text>
</g>
<g >
<title>get_futex_key (1 samples, 0.01%)</title><rect x="435.1" y="149" width="0.1" height="15.0" fill="rgb(221,160,29)" rx="2" ry="2" />
<text  x="438.11" y="159.5" ></text>
</g>
<g >
<title>__schedule (35 samples, 0.31%)</title><rect x="12.5" y="69" width="3.7" height="15.0" fill="rgb(246,116,46)" rx="2" ry="2" />
<text  x="15.54" y="79.5" ></text>
</g>
<g >
<title>plist_del (2 samples, 0.02%)</title><rect x="286.5" y="101" width="0.2" height="15.0" fill="rgb(236,155,26)" rx="2" ry="2" />
<text  x="289.46" y="111.5" ></text>
</g>
<g >
<title>pthread_mutex_lock (68 samples, 0.61%)</title><rect x="699.0" y="229" width="7.2" height="15.0" fill="rgb(230,68,36)" rx="2" ry="2" />
<text  x="701.98" y="239.5" ></text>
</g>
<g >
<title>hash_futex (2 samples, 0.02%)</title><rect x="263.9" y="133" width="0.2" height="15.0" fill="rgb(207,228,4)" rx="2" ry="2" />
<text  x="266.92" y="143.5" ></text>
</g>
<g >
<title>wake_up_q (57 samples, 0.51%)</title><rect x="33.7" y="101" width="6.0" height="15.0" fill="rgb(243,128,7)" rx="2" ry="2" />
<text  x="36.70" y="111.5" ></text>
</g>
<g >
<title>sys_futex (2,317 samples, 20.77%)</title><rect x="453.5" y="181" width="245.2" height="15.0" fill="rgb(227,108,7)" rx="2" ry="2" />
<text  x="456.52" y="191.5" >sys_futex</text>
</g>
<g >
<title>do_futex (1,122 samples, 10.06%)</title><rect x="64.0" y="133" width="118.7" height="15.0" fill="rgb(206,38,2)" rx="2" ry="2" />
<text  x="66.96" y="143.5" >do_futex</text>
</g>
<g >
<title>_int_malloc (24 samples, 0.22%)</title><rect x="203.1" y="245" width="2.5" height="15.0" fill="rgb(216,193,54)" rx="2" ry="2" />
<text  x="206.09" y="255.5" ></text>
</g>
<g >
<title>sys_futex (1,498 samples, 13.43%)</title><rect x="277.3" y="181" width="158.4" height="15.0" fill="rgb(209,107,2)" rx="2" ry="2" />
<text  x="280.25" y="191.5" >sys_futex</text>
</g>
<g >
<title>schedule (35 samples, 0.31%)</title><rect x="12.5" y="85" width="3.7" height="15.0" fill="rgb(214,48,5)" rx="2" ry="2" />
<text  x="15.54" y="95.5" ></text>
</g>
<g >
<title>entry_SYSCALL_64_after_hwframe (1,195 samples, 10.71%)</title><rect x="56.4" y="181" width="126.5" height="15.0" fill="rgb(232,1,54)" rx="2" ry="2" />
<text  x="59.45" y="191.5" >entry_SYSCALL_6..</text>
</g>
<g >
<title>do_futex (1,490 samples, 13.36%)</title><rect x="278.1" y="165" width="157.6" height="15.0" fill="rgb(218,11,35)" rx="2" ry="2" />
<text  x="281.10" y="175.5" >do_futex</text>
</g>
<g >
<title>__softirqentry_text_start (1 samples, 0.01%)</title><rect x="1189.5" y="133" width="0.1" height="15.0" fill="rgb(241,102,50)" rx="2" ry="2" />
<text  x="1192.47" y="143.5" ></text>
</g>
<g >
<title>plist_add (1 samples, 0.01%)</title><rect x="264.1" y="133" width="0.1" height="15.0" fill="rgb(220,17,23)" rx="2" ry="2" />
<text  x="267.13" y="143.5" ></text>
</g>
<g >
<title>plist_add (3 samples, 0.03%)</title><rect x="222.6" y="117" width="0.3" height="15.0" fill="rgb(229,9,2)" rx="2" ry="2" />
<text  x="225.55" y="127.5" ></text>
</g>
</g>
</svg>
