<?xml version="1.0" standalone="no"?>
<!DOCTYPE svg PUBLIC "-//W3C//DTD SVG 1.1//EN" "http://www.w3.org/Graphics/SVG/1.1/DTD/svg11.dtd">
<svg version="1.1" width="1200" height="710" onload="init(evt)" viewBox="0 0 1200 710" xmlns="http://www.w3.org/2000/svg" xmlns:xlink="http://www.w3.org/1999/xlink">
<!-- Flame graph stack visualization. See https://github.com/brendangregg/FlameGraph for latest version, and http://www.brendangregg.com/flamegraphs.html for examples. -->
<!-- NOTES:  -->
<defs>
	<linearGradient id="background" y1="0" y2="1" x1="0" x2="0" >
		<stop stop-color="#eeeeee" offset="5%" />
		<stop stop-color="#eeeeb0" offset="95%" />
	</linearGradient>
</defs>
<style type="text/css">
	text { font-family:Verdana; font-size:12px; fill:rgb(0,0,0); }
	#search, #ignorecase { opacity:0.1; cursor:pointer; }
	#search:hover, #search.show, #ignorecase:hover, #ignorecase.show { opacity:1; }
	#subtitle { text-anchor:middle; font-color:rgb(160,160,160); }
	#title { text-anchor:middle; font-size:17px}
	#unzoom { cursor:pointer; }
	#frames > *:hover { stroke:black; stroke-width:0.5; cursor:pointer; }
	.hide { display:none; }
	.parent { opacity:0.5; }
</style>
<script type="text/ecmascript">
<![CDATA[
	"use strict";
	var details, searchbtn, unzoombtn, matchedtxt, svg, searching, currentSearchTerm, ignorecase, ignorecaseBtn;
	function init(evt) {
		details = document.getElementById("details").firstChild;
		searchbtn = document.getElementById("search");
		ignorecaseBtn = document.getElementById("ignorecase");
		unzoombtn = document.getElementById("unzoom");
		matchedtxt = document.getElementById("matched");
		svg = document.getElementsByTagName("svg")[0];
		searching = 0;
		currentSearchTerm = null;

		// use GET parameters to restore a flamegraphs state.
		var params = get_params();
		if (params.x && params.y)
			zoom(find_group(document.querySelector('[x="' + params.x + '"][y="' + params.y + '"]')));
                if (params.s) search(params.s);
	}

	// event listeners
	window.addEventListener("click", function(e) {
		var target = find_group(e.target);
		if (target) {
			if (target.nodeName == "a") {
				if (e.ctrlKey === false) return;
				e.preventDefault();
			}
			if (target.classList.contains("parent")) unzoom();
			zoom(target);
			if (!document.querySelector('.parent')) {
				clearzoom();
				return;
			}

			// set parameters for zoom state
			var el = target.querySelector("rect");
			if (el && el.attributes && el.attributes.y && el.attributes._orig_x) {
				var params = get_params()
				params.x = el.attributes._orig_x.value;
				params.y = el.attributes.y.value;
				history.replaceState(null, null, parse_params(params));
			}
		}
		else if (e.target.id == "unzoom") clearzoom();
		else if (e.target.id == "search") search_prompt();
		else if (e.target.id == "ignorecase") toggle_ignorecase();
	}, false)

	// mouse-over for info
	// show
	window.addEventListener("mouseover", function(e) {
		var target = find_group(e.target);
		if (target) details.nodeValue = "Function: " + g_to_text(target);
	}, false)

	// clear
	window.addEventListener("mouseout", function(e) {
		var target = find_group(e.target);
		if (target) details.nodeValue = ' ';
	}, false)

	// ctrl-F for search
	// ctrl-I to toggle case-sensitive search
	window.addEventListener("keydown",function (e) {
		if (e.keyCode === 114 || (e.ctrlKey && e.keyCode === 70)) {
			e.preventDefault();
			search_prompt();
		}
		else if (e.ctrlKey && e.keyCode === 73) {
			e.preventDefault();
			toggle_ignorecase();
		}
	}, false)

	// functions
	function get_params() {
		var params = {};
		var paramsarr = window.location.search.substr(1).split('&');
		for (var i = 0; i < paramsarr.length; ++i) {
			var tmp = paramsarr[i].split("=");
			if (!tmp[0] || !tmp[1]) continue;
			params[tmp[0]]  = decodeURIComponent(tmp[1]);
		}
		return params;
	}
	function parse_params(params) {
		var uri = "?";
		for (var key in params) {
			uri += key + '=' + encodeURIComponent(params[key]) + '&';
		}
		if (uri.slice(-1) == "&")
			uri = uri.substring(0, uri.length - 1);
		if (uri == '?')
			uri = window.location.href.split('?')[0];
		return uri;
	}
	function find_child(node, selector) {
		var children = node.querySelectorAll(selector);
		if (children.length) return children[0];
	}
	function find_group(node) {
		var parent = node.parentElement;
		if (!parent) return;
		if (parent.id == "frames") return node;
		return find_group(parent);
	}
	function orig_save(e, attr, val) {
		if (e.attributes["_orig_" + attr] != undefined) return;
		if (e.attributes[attr] == undefined) return;
		if (val == undefined) val = e.attributes[attr].value;
		e.setAttribute("_orig_" + attr, val);
	}
	function orig_load(e, attr) {
		if (e.attributes["_orig_"+attr] == undefined) return;
		e.attributes[attr].value = e.attributes["_orig_" + attr].value;
		e.removeAttribute("_orig_"+attr);
	}
	function g_to_text(e) {
		var text = find_child(e, "title").firstChild.nodeValue;
		return (text)
	}
	function g_to_func(e) {
		var func = g_to_text(e);
		// if there's any manipulation we want to do to the function
		// name before it's searched, do it here before returning.
		return (func);
	}
	function update_text(e) {
		var r = find_child(e, "rect");
		var t = find_child(e, "text");
		var w = parseFloat(r.attributes.width.value) -3;
		var txt = find_child(e, "title").textContent.replace(/\([^(]*\)$/,"");
		t.attributes.x.value = parseFloat(r.attributes.x.value) + 3;

		// Smaller than this size won't fit anything
		if (w < 2 * 12 * 0.59) {
			t.textContent = "";
			return;
		}

		t.textContent = txt;
		// Fit in full text width
		if (/^ *$/.test(txt) || t.getSubStringLength(0, txt.length) < w)
			return;

		for (var x = txt.length - 2; x > 0; x--) {
			if (t.getSubStringLength(0, x + 2) <= w) {
				t.textContent = txt.substring(0, x) + "..";
				return;
			}
		}
		t.textContent = "";
	}

	// zoom
	function zoom_reset(e) {
		if (e.attributes != undefined) {
			orig_load(e, "x");
			orig_load(e, "width");
		}
		if (e.childNodes == undefined) return;
		for (var i = 0, c = e.childNodes; i < c.length; i++) {
			zoom_reset(c[i]);
		}
	}
	function zoom_child(e, x, ratio) {
		if (e.attributes != undefined) {
			if (e.attributes.x != undefined) {
				orig_save(e, "x");
				e.attributes.x.value = (parseFloat(e.attributes.x.value) - x - 10) * ratio + 10;
				if (e.tagName == "text")
					e.attributes.x.value = find_child(e.parentNode, "rect[x]").attributes.x.value + 3;
			}
			if (e.attributes.width != undefined) {
				orig_save(e, "width");
				e.attributes.width.value = parseFloat(e.attributes.width.value) * ratio;
			}
		}

		if (e.childNodes == undefined) return;
		for (var i = 0, c = e.childNodes; i < c.length; i++) {
			zoom_child(c[i], x - 10, ratio);
		}
	}
	function zoom_parent(e) {
		if (e.attributes) {
			if (e.attributes.x != undefined) {
				orig_save(e, "x");
				e.attributes.x.value = 10;
			}
			if (e.attributes.width != undefined) {
				orig_save(e, "width");
				e.attributes.width.value = parseInt(svg.width.baseVal.value) - (10 * 2);
			}
		}
		if (e.childNodes == undefined) return;
		for (var i = 0, c = e.childNodes; i < c.length; i++) {
			zoom_parent(c[i]);
		}
	}
	function zoom(node) {
		var attr = find_child(node, "rect").attributes;
		var width = parseFloat(attr.width.value);
		var xmin = parseFloat(attr.x.value);
		var xmax = parseFloat(xmin + width);
		var ymin = parseFloat(attr.y.value);
		var ratio = (svg.width.baseVal.value - 2 * 10) / width;

		// XXX: Workaround for JavaScript float issues (fix me)
		var fudge = 0.0001;

		unzoombtn.classList.remove("hide");

		var el = document.getElementById("frames").children;
		for (var i = 0; i < el.length; i++) {
			var e = el[i];
			var a = find_child(e, "rect").attributes;
			var ex = parseFloat(a.x.value);
			var ew = parseFloat(a.width.value);
			var upstack;
			// Is it an ancestor
			if (0 == 0) {
				upstack = parseFloat(a.y.value) > ymin;
			} else {
				upstack = parseFloat(a.y.value) < ymin;
			}
			if (upstack) {
				// Direct ancestor
				if (ex <= xmin && (ex+ew+fudge) >= xmax) {
					e.classList.add("parent");
					zoom_parent(e);
					update_text(e);
				}
				// not in current path
				else
					e.classList.add("hide");
			}
			// Children maybe
			else {
				// no common path
				if (ex < xmin || ex + fudge >= xmax) {
					e.classList.add("hide");
				}
				else {
					zoom_child(e, xmin, ratio);
					update_text(e);
				}
			}
		}
		search();
	}
	function unzoom() {
		unzoombtn.classList.add("hide");
		var el = document.getElementById("frames").children;
		for(var i = 0; i < el.length; i++) {
			el[i].classList.remove("parent");
			el[i].classList.remove("hide");
			zoom_reset(el[i]);
			update_text(el[i]);
		}
		search();
	}
	function clearzoom() {
		unzoom();

		// remove zoom state
		var params = get_params();
		if (params.x) delete params.x;
		if (params.y) delete params.y;
		history.replaceState(null, null, parse_params(params));
	}

	// search
	function toggle_ignorecase() {
		ignorecase = !ignorecase;
		if (ignorecase) {
			ignorecaseBtn.classList.add("show");
		} else {
			ignorecaseBtn.classList.remove("show");
		}
		reset_search();
		search();
	}
	function reset_search() {
		var el = document.querySelectorAll("#frames rect");
		for (var i = 0; i < el.length; i++) {
			orig_load(el[i], "fill")
		}
		var params = get_params();
		delete params.s;
		history.replaceState(null, null, parse_params(params));
	}
	function search_prompt() {
		if (!searching) {
			var term = prompt("Enter a search term (regexp " +
			    "allowed, eg: ^ext4_)"
			    + (ignorecase ? ", ignoring case" : "")
			    + "\nPress Ctrl-i to toggle case sensitivity", "");
			if (term != null) search(term);
		} else {
			reset_search();
			searching = 0;
			currentSearchTerm = null;
			searchbtn.classList.remove("show");
			searchbtn.firstChild.nodeValue = "Search"
			matchedtxt.classList.add("hide");
			matchedtxt.firstChild.nodeValue = ""
		}
	}
	function search(term) {
		if (term) currentSearchTerm = term;

		var re = new RegExp(currentSearchTerm, ignorecase ? 'i' : '');
		var el = document.getElementById("frames").children;
		var matches = new Object();
		var maxwidth = 0;
		for (var i = 0; i < el.length; i++) {
			var e = el[i];
			var func = g_to_func(e);
			var rect = find_child(e, "rect");
			if (func == null || rect == null)
				continue;

			// Save max width. Only works as we have a root frame
			var w = parseFloat(rect.attributes.width.value);
			if (w > maxwidth)
				maxwidth = w;

			if (func.match(re)) {
				// highlight
				var x = parseFloat(rect.attributes.x.value);
				orig_save(rect, "fill");
				rect.attributes.fill.value = "rgb(230,0,230)";

				// remember matches
				if (matches[x] == undefined) {
					matches[x] = w;
				} else {
					if (w > matches[x]) {
						// overwrite with parent
						matches[x] = w;
					}
				}
				searching = 1;
			}
		}
		if (!searching)
			return;
		var params = get_params();
		params.s = currentSearchTerm;
		history.replaceState(null, null, parse_params(params));

		searchbtn.classList.add("show");
		searchbtn.firstChild.nodeValue = "Reset Search";

		// calculate percent matched, excluding vertical overlap
		var count = 0;
		var lastx = -1;
		var lastw = 0;
		var keys = Array();
		for (k in matches) {
			if (matches.hasOwnProperty(k))
				keys.push(k);
		}
		// sort the matched frames by their x location
		// ascending, then width descending
		keys.sort(function(a, b){
			return a - b;
		});
		// Step through frames saving only the biggest bottom-up frames
		// thanks to the sort order. This relies on the tree property
		// where children are always smaller than their parents.
		var fudge = 0.0001;	// JavaScript floating point
		for (var k in keys) {
			var x = parseFloat(keys[k]);
			var w = matches[keys[k]];
			if (x >= lastx + lastw - fudge) {
				count += w;
				lastx = x;
				lastw = w;
			}
		}
		// display matched percent
		matchedtxt.classList.remove("hide");
		var pct = 100 * count / maxwidth;
		if (pct != 100) pct = pct.toFixed(1)
		matchedtxt.firstChild.nodeValue = "Matched: " + pct + "%";
	}
]]>
</script>
<rect x="0.0" y="0" width="1200.0" height="710.0" fill="url(#background)"  />
<text id="title" x="600.00" y="24" >Flame Graph</text>
<text id="details" x="10.00" y="693" > </text>
<text id="unzoom" x="10.00" y="24" class="hide">Reset Zoom</text>
<text id="search" x="1090.00" y="24" >Search</text>
<text id="ignorecase" x="1174.00" y="24" >ic</text>
<text id="matched" x="1090.00" y="693" > </text>
<g id="frames">
<g >
<title>zmq::object_t::send_activate_read (40 samples, 27.21%)</title><rect x="355.2" y="501" width="321.1" height="15.0" fill="rgb(239,94,33)" rx="2" ry="2" />
<text  x="358.17" y="511.5" >zmq::object_t::send_activate_read</text>
</g>
<g >
<title>zmq::pipe_t::flush (54 samples, 36.73%)</title><rect x="748.5" y="501" width="433.5" height="15.0" fill="rgb(233,224,41)" rx="2" ry="2" />
<text  x="751.50" y="511.5" >zmq::pipe_t::flush</text>
</g>
<g >
<title>__schedule (6 samples, 4.08%)</title><rect x="684.3" y="485" width="48.1" height="15.0" fill="rgb(235,149,48)" rx="2" ry="2" />
<text  x="687.29" y="495.5" >__sc..</text>
</g>
<g >
<title>thread_routine (41 samples, 27.89%)</title><rect x="347.1" y="613" width="329.2" height="15.0" fill="rgb(212,202,15)" rx="2" ry="2" />
<text  x="350.14" y="623.5" >thread_routine</text>
</g>
<g >
<title>zmq::session_base_t::flush (40 samples, 27.21%)</title><rect x="355.2" y="533" width="321.1" height="15.0" fill="rgb(247,197,24)" rx="2" ry="2" />
<text  x="358.17" y="543.5" >zmq::session_base_t::flush</text>
</g>
<g >
<title>zmq::stream_engine_base_t::in_event (40 samples, 27.21%)</title><rect x="355.2" y="565" width="321.1" height="15.0" fill="rgb(218,193,6)" rx="2" ry="2" />
<text  x="358.17" y="575.5" >zmq::stream_engine_base_t::in_event</text>
</g>
<g >
<title>__errno_location (1 samples, 0.68%)</title><rect x="1182.0" y="501" width="8.0" height="15.0" fill="rgb(251,70,46)" rx="2" ry="2" />
<text  x="1184.97" y="511.5" ></text>
</g>
<g >
<title>__vfs_write (40 samples, 27.21%)</title><rect x="355.2" y="357" width="321.1" height="15.0" fill="rgb(214,146,52)" rx="2" ry="2" />
<text  x="358.17" y="367.5" >__vfs_write</text>
</g>
<g >
<title>zmq_recv (2 samples, 1.36%)</title><rect x="732.4" y="581" width="16.1" height="15.0" fill="rgb(225,177,45)" rx="2" ry="2" />
<text  x="735.45" y="591.5" ></text>
</g>
<g >
<title>__GI___libc_write (54 samples, 36.73%)</title><rect x="748.5" y="421" width="433.5" height="15.0" fill="rgb(226,1,25)" rx="2" ry="2" />
<text  x="751.50" y="431.5" >__GI___libc_write</text>
</g>
<g >
<title>do_syscall_64 (42 samples, 28.57%)</title><rect x="10.0" y="597" width="337.1" height="15.0" fill="rgb(251,113,27)" rx="2" ry="2" />
<text  x="13.00" y="607.5" >do_syscall_64</text>
</g>
<g >
<title>eventfd_write (40 samples, 27.21%)</title><rect x="355.2" y="341" width="321.1" height="15.0" fill="rgb(218,55,16)" rx="2" ry="2" />
<text  x="358.17" y="351.5" >eventfd_write</text>
</g>
<g >
<title>sys_write (40 samples, 27.21%)</title><rect x="355.2" y="389" width="321.1" height="15.0" fill="rgb(249,76,54)" rx="2" ry="2" />
<text  x="358.17" y="399.5" >sys_write</text>
</g>
<g >
<title>__vfs_write (54 samples, 36.73%)</title><rect x="748.5" y="341" width="433.5" height="15.0" fill="rgb(235,166,27)" rx="2" ry="2" />
<text  x="751.50" y="351.5" >__vfs_write</text>
</g>
<g >
<title>ip_output (42 samples, 28.57%)</title><rect x="10.0" y="389" width="337.1" height="15.0" fill="rgb(244,130,13)" rx="2" ry="2" />
<text  x="13.00" y="399.5" >ip_output</text>
</g>
<g >
<title>do_syscall_64 (54 samples, 36.73%)</title><rect x="748.5" y="389" width="433.5" height="15.0" fill="rgb(238,155,18)" rx="2" ry="2" />
<text  x="751.50" y="399.5" >do_syscall_64</text>
</g>
<g >
<title>ip_finish_output (42 samples, 28.57%)</title><rect x="10.0" y="373" width="337.1" height="15.0" fill="rgb(240,90,52)" rx="2" ry="2" />
<text  x="13.00" y="383.5" >ip_finish_output</text>
</g>
<g >
<title>zmq::mailbox_t::recv (1 samples, 0.68%)</title><rect x="347.1" y="549" width="8.1" height="15.0" fill="rgb(233,114,52)" rx="2" ry="2" />
<text  x="350.14" y="559.5" ></text>
</g>
<g >
<title>sys_write (54 samples, 36.73%)</title><rect x="748.5" y="373" width="433.5" height="15.0" fill="rgb(242,75,39)" rx="2" ry="2" />
<text  x="751.50" y="383.5" >sys_write</text>
</g>
<g >
<title>hwserver (64 samples, 43.54%)</title><rect x="676.3" y="645" width="513.7" height="15.0" fill="rgb(207,22,8)" rx="2" ry="2" />
<text  x="679.26" y="655.5" >hwserver</text>
</g>
<g >
<title>tcp_write_xmit (42 samples, 28.57%)</title><rect x="10.0" y="453" width="337.1" height="15.0" fill="rgb(217,42,9)" rx="2" ry="2" />
<text  x="13.00" y="463.5" >tcp_write_xmit</text>
</g>
<g >
<title>tcp_sendmsg_locked (42 samples, 28.57%)</title><rect x="10.0" y="501" width="337.1" height="15.0" fill="rgb(210,191,53)" rx="2" ry="2" />
<text  x="13.00" y="511.5" >tcp_sendmsg_locked</text>
</g>
<g >
<title>eventfd_write (54 samples, 36.73%)</title><rect x="748.5" y="325" width="433.5" height="15.0" fill="rgb(245,174,19)" rx="2" ry="2" />
<text  x="751.50" y="335.5" >eventfd_write</text>
</g>
<g >
<title>ip_local_out (42 samples, 28.57%)</title><rect x="10.0" y="405" width="337.1" height="15.0" fill="rgb(241,228,24)" rx="2" ry="2" />
<text  x="13.00" y="415.5" >ip_local_out</text>
</g>
<g >
<title>__nanosleep (7 samples, 4.76%)</title><rect x="676.3" y="597" width="56.1" height="15.0" fill="rgb(223,12,25)" rx="2" ry="2" />
<text  x="679.26" y="607.5" >__nan..</text>
</g>
<g >
<title>__softirqentry_text_start (42 samples, 28.57%)</title><rect x="10.0" y="293" width="337.1" height="15.0" fill="rgb(213,32,17)" rx="2" ry="2" />
<text  x="13.00" y="303.5" >__softirqentry_text_start</text>
</g>
<g >
<title>ip_local_deliver_finish (42 samples, 28.57%)</title><rect x="10.0" y="165" width="337.1" height="15.0" fill="rgb(233,200,3)" rx="2" ry="2" />
<text  x="13.00" y="175.5" >ip_local_deliver_finish</text>
</g>
<g >
<title>tcp_v4_do_rcv (42 samples, 28.57%)</title><rect x="10.0" y="133" width="337.1" height="15.0" fill="rgb(224,82,19)" rx="2" ry="2" />
<text  x="13.00" y="143.5" >tcp_v4_do_rcv</text>
</g>
<g >
<title>ip_rcv (42 samples, 28.57%)</title><rect x="10.0" y="213" width="337.1" height="15.0" fill="rgb(209,81,4)" rx="2" ry="2" />
<text  x="13.00" y="223.5" >ip_rcv</text>
</g>
<g >
<title>tcp_push (42 samples, 28.57%)</title><rect x="10.0" y="485" width="337.1" height="15.0" fill="rgb(236,45,1)" rx="2" ry="2" />
<text  x="13.00" y="495.5" >tcp_push</text>
</g>
<g >
<title>zmq::router_t::xrecv (1 samples, 0.68%)</title><rect x="740.5" y="517" width="8.0" height="15.0" fill="rgb(236,66,50)" rx="2" ry="2" />
<text  x="743.48" y="527.5" ></text>
</g>
<g >
<title>__wake_up_sync_key (42 samples, 28.57%)</title><rect x="10.0" y="69" width="337.1" height="15.0" fill="rgb(220,24,15)" rx="2" ry="2" />
<text  x="13.00" y="79.5" >__wake_up_sync_key</text>
</g>
<g >
<title>__libc_start_main (64 samples, 43.54%)</title><rect x="676.3" y="613" width="513.7" height="15.0" fill="rgb(226,185,37)" rx="2" ry="2" />
<text  x="679.26" y="623.5" >__libc_start_main</text>
</g>
<g >
<title>zmq::mailbox_t::recv (1 samples, 0.68%)</title><rect x="1182.0" y="517" width="8.0" height="15.0" fill="rgb(232,176,27)" rx="2" ry="2" />
<text  x="1184.97" y="527.5" ></text>
</g>
<g >
<title>entry_SYSCALL_64_after_hwframe (40 samples, 27.21%)</title><rect x="355.2" y="421" width="321.1" height="15.0" fill="rgb(243,127,23)" rx="2" ry="2" />
<text  x="358.17" y="431.5" >entry_SYSCALL_64_after_hwframe</text>
</g>
<g >
<title>ZMQbg/IO/0 (83 samples, 56.46%)</title><rect x="10.0" y="645" width="666.3" height="15.0" fill="rgb(216,25,34)" rx="2" ry="2" />
<text  x="13.00" y="655.5" >ZMQbg/IO/0</text>
</g>
<g >
<title>zmq::socket_base_t::process_commands (1 samples, 0.68%)</title><rect x="1182.0" y="533" width="8.0" height="15.0" fill="rgb(235,123,35)" rx="2" ry="2" />
<text  x="1184.97" y="543.5" ></text>
</g>
<g >
<title>do_softirq_own_stack (42 samples, 28.57%)</title><rect x="10.0" y="309" width="337.1" height="15.0" fill="rgb(254,3,38)" rx="2" ry="2" />
<text  x="13.00" y="319.5" >do_softirq_own_stack</text>
</g>
<g >
<title>hrtimer_nanosleep (6 samples, 4.08%)</title><rect x="684.3" y="533" width="48.1" height="15.0" fill="rgb(219,141,53)" rx="2" ry="2" />
<text  x="687.29" y="543.5" >hrti..</text>
</g>
<g >
<title>do_nanosleep (6 samples, 4.08%)</title><rect x="684.3" y="517" width="48.1" height="15.0" fill="rgb(243,109,26)" rx="2" ry="2" />
<text  x="687.29" y="527.5" >do_n..</text>
</g>
<g >
<title>__local_bh_enable_ip (42 samples, 28.57%)</title><rect x="10.0" y="341" width="337.1" height="15.0" fill="rgb(219,195,31)" rx="2" ry="2" />
<text  x="13.00" y="351.5" >__local_bh_enable_ip</text>
</g>
<g >
<title>sock_def_readable (42 samples, 28.57%)</title><rect x="10.0" y="85" width="337.1" height="15.0" fill="rgb(229,95,18)" rx="2" ry="2" />
<text  x="13.00" y="95.5" >sock_def_readable</text>
</g>
<g >
<title>zmq::socket_base_t::recv (2 samples, 1.36%)</title><rect x="732.4" y="549" width="16.1" height="15.0" fill="rgb(238,202,23)" rx="2" ry="2" />
<text  x="735.45" y="559.5" ></text>
</g>
<g >
<title>net_rx_action (42 samples, 28.57%)</title><rect x="10.0" y="277" width="337.1" height="15.0" fill="rgb(212,25,1)" rx="2" ry="2" />
<text  x="13.00" y="287.5" >net_rx_action</text>
</g>
<g >
<title>entry_SYSCALL_64_after_hwframe (54 samples, 36.73%)</title><rect x="748.5" y="405" width="433.5" height="15.0" fill="rgb(213,121,40)" rx="2" ry="2" />
<text  x="751.50" y="415.5" >entry_SYSCALL_64_after_hwframe</text>
</g>
<g >
<title>zmq::rep_t::xrecv (2 samples, 1.36%)</title><rect x="732.4" y="533" width="16.1" height="15.0" fill="rgb(240,62,10)" rx="2" ry="2" />
<text  x="735.45" y="543.5" ></text>
</g>
<g >
<title>zmq::worker_poller_base_t::worker_routine (41 samples, 27.89%)</title><rect x="347.1" y="597" width="329.2" height="15.0" fill="rgb(230,17,6)" rx="2" ry="2" />
<text  x="350.14" y="607.5" >zmq::worker_poller_base_t::worker_routine</text>
</g>
<g >
<title>zmq::object_t::send_command (54 samples, 36.73%)</title><rect x="748.5" y="469" width="433.5" height="15.0" fill="rgb(234,34,49)" rx="2" ry="2" />
<text  x="751.50" y="479.5" >zmq::object_t::send_command</text>
</g>
<g >
<title>zmq::msg_t::check (1 samples, 0.68%)</title><rect x="740.5" y="469" width="8.0" height="15.0" fill="rgb(254,200,49)" rx="2" ry="2" />
<text  x="743.48" y="479.5" ></text>
</g>
<g >
<title>__netif_receive_skb (42 samples, 28.57%)</title><rect x="10.0" y="245" width="337.1" height="15.0" fill="rgb(227,155,28)" rx="2" ry="2" />
<text  x="13.00" y="255.5" >__netif_receive_skb</text>
</g>
<g >
<title>sys_sendto (42 samples, 28.57%)</title><rect x="10.0" y="581" width="337.1" height="15.0" fill="rgb(247,62,50)" rx="2" ry="2" />
<text  x="13.00" y="591.5" >sys_sendto</text>
</g>
<g >
<title>zmq::io_thread_t::in_event (1 samples, 0.68%)</title><rect x="347.1" y="565" width="8.1" height="15.0" fill="rgb(211,13,3)" rx="2" ry="2" />
<text  x="350.14" y="575.5" ></text>
</g>
<g >
<title>zmq::object_t::send_activate_read (54 samples, 36.73%)</title><rect x="748.5" y="485" width="433.5" height="15.0" fill="rgb(252,146,52)" rx="2" ry="2" />
<text  x="751.50" y="495.5" >zmq::object_t::send_activate_read</text>
</g>
<g >
<title>zmq::stream_engine_base_t::in_event_internal (40 samples, 27.21%)</title><rect x="355.2" y="549" width="321.1" height="15.0" fill="rgb(224,150,40)" rx="2" ry="2" />
<text  x="358.17" y="559.5" >zmq::stream_engine_base_t::in_event_internal</text>
</g>
<g >
<title>__netif_receive_skb_core (42 samples, 28.57%)</title><rect x="10.0" y="229" width="337.1" height="15.0" fill="rgb(209,29,12)" rx="2" ry="2" />
<text  x="13.00" y="239.5" >__netif_receive_skb_core</text>
</g>
<g >
<title>__lock_text_start (42 samples, 28.57%)</title><rect x="10.0" y="37" width="337.1" height="15.0" fill="rgb(228,5,29)" rx="2" ry="2" />
<text  x="13.00" y="47.5" >__lock_text_start</text>
</g>
<g >
<title>ip_queue_xmit (42 samples, 28.57%)</title><rect x="10.0" y="421" width="337.1" height="15.0" fill="rgb(233,100,2)" rx="2" ry="2" />
<text  x="13.00" y="431.5" >ip_queue_xmit</text>
</g>
<g >
<title>s_sendmsg (55 samples, 37.41%)</title><rect x="748.5" y="565" width="441.5" height="15.0" fill="rgb(253,11,5)" rx="2" ry="2" />
<text  x="751.50" y="575.5" >s_sendmsg</text>
</g>
<g >
<title>tcp_rcv_established (42 samples, 28.57%)</title><rect x="10.0" y="117" width="337.1" height="15.0" fill="rgb(240,145,17)" rx="2" ry="2" />
<text  x="13.00" y="127.5" >tcp_rcv_established</text>
</g>
<g >
<title>inet_sendmsg (42 samples, 28.57%)</title><rect x="10.0" y="533" width="337.1" height="15.0" fill="rgb(228,40,47)" rx="2" ry="2" />
<text  x="13.00" y="543.5" >inet_sendmsg</text>
</g>
<g >
<title>zmq::mailbox_t::send (54 samples, 36.73%)</title><rect x="748.5" y="437" width="433.5" height="15.0" fill="rgb(223,152,20)" rx="2" ry="2" />
<text  x="751.50" y="447.5" >zmq::mailbox_t::send</text>
</g>
<g >
<title>sock_sendmsg (42 samples, 28.57%)</title><rect x="10.0" y="549" width="337.1" height="15.0" fill="rgb(217,99,53)" rx="2" ry="2" />
<text  x="13.00" y="559.5" >sock_sendmsg</text>
</g>
<g >
<title>tcp_sendmsg (42 samples, 28.57%)</title><rect x="10.0" y="517" width="337.1" height="15.0" fill="rgb(230,157,33)" rx="2" ry="2" />
<text  x="13.00" y="527.5" >tcp_sendmsg</text>
</g>
<g >
<title>__GI___libc_poll (1 samples, 0.68%)</title><rect x="347.1" y="533" width="8.1" height="15.0" fill="rgb(216,165,46)" rx="2" ry="2" />
<text  x="350.14" y="543.5" ></text>
</g>
<g >
<title>s_recvmsg (2 samples, 1.36%)</title><rect x="732.4" y="565" width="16.1" height="15.0" fill="rgb(236,196,19)" rx="2" ry="2" />
<text  x="735.45" y="575.5" ></text>
</g>
<g >
<title>zmq::ctx_t::send_command (54 samples, 36.73%)</title><rect x="748.5" y="453" width="433.5" height="15.0" fill="rgb(231,30,29)" rx="2" ry="2" />
<text  x="751.50" y="463.5" >zmq::ctx_t::send_command</text>
</g>
<g >
<title>zmq_send (55 samples, 37.41%)</title><rect x="748.5" y="581" width="441.5" height="15.0" fill="rgb(209,56,28)" rx="2" ry="2" />
<text  x="751.50" y="591.5" >zmq_send</text>
</g>
<g >
<title>finish_task_switch (6 samples, 4.08%)</title><rect x="684.3" y="469" width="48.1" height="15.0" fill="rgb(251,166,44)" rx="2" ry="2" />
<text  x="687.29" y="479.5" >fini..</text>
</g>
<g >
<title>sys_nanosleep (6 samples, 4.08%)</title><rect x="684.3" y="549" width="48.1" height="15.0" fill="rgb(208,80,31)" rx="2" ry="2" />
<text  x="687.29" y="559.5" >sys_..</text>
</g>
<g >
<title>zmq::socket_base_t::send (55 samples, 37.41%)</title><rect x="748.5" y="549" width="441.5" height="15.0" fill="rgb(239,162,47)" rx="2" ry="2" />
<text  x="751.50" y="559.5" >zmq::socket_base_t::send</text>
</g>
<g >
<title>ip_local_deliver (42 samples, 28.57%)</title><rect x="10.0" y="181" width="337.1" height="15.0" fill="rgb(205,36,1)" rx="2" ry="2" />
<text  x="13.00" y="191.5" >ip_local_deliver</text>
</g>
<g >
<title>SYSC_sendto (42 samples, 28.57%)</title><rect x="10.0" y="565" width="337.1" height="15.0" fill="rgb(245,136,8)" rx="2" ry="2" />
<text  x="13.00" y="575.5" >SYSC_sendto</text>
</g>
<g >
<title>do_softirq.part.17 (42 samples, 28.57%)</title><rect x="10.0" y="325" width="337.1" height="15.0" fill="rgb(239,13,45)" rx="2" ry="2" />
<text  x="13.00" y="335.5" >do_softirq.part.17</text>
</g>
<g >
<title>zmq::ctx_t::send_command (40 samples, 27.21%)</title><rect x="355.2" y="469" width="321.1" height="15.0" fill="rgb(225,38,16)" rx="2" ry="2" />
<text  x="358.17" y="479.5" >zmq::ctx_t::send_command</text>
</g>
<g >
<title>[unknown] (64 samples, 43.54%)</title><rect x="676.3" y="629" width="513.7" height="15.0" fill="rgb(226,117,16)" rx="2" ry="2" />
<text  x="679.26" y="639.5" >[unknown]</text>
</g>
<g >
<title>tcp_data_queue (42 samples, 28.57%)</title><rect x="10.0" y="101" width="337.1" height="15.0" fill="rgb(227,23,22)" rx="2" ry="2" />
<text  x="13.00" y="111.5" >tcp_data_queue</text>
</g>
<g >
<title>schedule (6 samples, 4.08%)</title><rect x="684.3" y="501" width="48.1" height="15.0" fill="rgb(236,38,39)" rx="2" ry="2" />
<text  x="687.29" y="511.5" >sche..</text>
</g>
<g >
<title>entry_SYSCALL_64_after_hwframe (42 samples, 28.57%)</title><rect x="10.0" y="613" width="337.1" height="15.0" fill="rgb(251,71,1)" rx="2" ry="2" />
<text  x="13.00" y="623.5" >entry_SYSCALL_64_after_hwframe</text>
</g>
<g >
<title>do_syscall_64 (6 samples, 4.08%)</title><rect x="684.3" y="565" width="48.1" height="15.0" fill="rgb(217,214,7)" rx="2" ry="2" />
<text  x="687.29" y="575.5" >do_s..</text>
</g>
<g >
<title>zmq::mailbox_t::send (40 samples, 27.21%)</title><rect x="355.2" y="453" width="321.1" height="15.0" fill="rgb(253,26,11)" rx="2" ry="2" />
<text  x="358.17" y="463.5" >zmq::mailbox_t::send</text>
</g>
<g >
<title>all (147 samples, 100%)</title><rect x="10.0" y="661" width="1180.0" height="15.0" fill="rgb(235,26,16)" rx="2" ry="2" />
<text  x="13.00" y="671.5" ></text>
</g>
<g >
<title>ip_finish_output2 (42 samples, 28.57%)</title><rect x="10.0" y="357" width="337.1" height="15.0" fill="rgb(239,188,51)" rx="2" ry="2" />
<text  x="13.00" y="367.5" >ip_finish_output2</text>
</g>
<g >
<title>do_syscall_64 (40 samples, 27.21%)</title><rect x="355.2" y="405" width="321.1" height="15.0" fill="rgb(227,66,51)" rx="2" ry="2" />
<text  x="358.17" y="415.5" >do_syscall_64</text>
</g>
<g >
<title>zmq::router_t::xsend (54 samples, 36.73%)</title><rect x="748.5" y="517" width="433.5" height="15.0" fill="rgb(253,16,40)" rx="2" ry="2" />
<text  x="751.50" y="527.5" >zmq::router_t::xsend</text>
</g>
<g >
<title>__libc_send (42 samples, 28.57%)</title><rect x="10.0" y="629" width="337.1" height="15.0" fill="rgb(247,226,26)" rx="2" ry="2" />
<text  x="13.00" y="639.5" >__libc_send</text>
</g>
<g >
<title>vfs_write (54 samples, 36.73%)</title><rect x="748.5" y="357" width="433.5" height="15.0" fill="rgb(220,162,12)" rx="2" ry="2" />
<text  x="751.50" y="367.5" >vfs_write</text>
</g>
<g >
<title>process_backlog (42 samples, 28.57%)</title><rect x="10.0" y="261" width="337.1" height="15.0" fill="rgb(212,176,34)" rx="2" ry="2" />
<text  x="13.00" y="271.5" >process_backlog</text>
</g>
<g >
<title>tcp_v4_rcv (42 samples, 28.57%)</title><rect x="10.0" y="149" width="337.1" height="15.0" fill="rgb(244,31,31)" rx="2" ry="2" />
<text  x="13.00" y="159.5" >tcp_v4_rcv</text>
</g>
<g >
<title>zmq::msg_t::close (1 samples, 0.68%)</title><rect x="740.5" y="485" width="8.0" height="15.0" fill="rgb(238,128,5)" rx="2" ry="2" />
<text  x="743.48" y="495.5" ></text>
</g>
<g >
<title>zmq::msg_t::data (1 samples, 0.68%)</title><rect x="732.4" y="517" width="8.1" height="15.0" fill="rgb(208,198,4)" rx="2" ry="2" />
<text  x="735.45" y="527.5" ></text>
</g>
<g >
<title>main (57 samples, 38.78%)</title><rect x="732.4" y="597" width="457.6" height="15.0" fill="rgb(223,102,2)" rx="2" ry="2" />
<text  x="735.45" y="607.5" >main</text>
</g>
<g >
<title>zmq::object_t::send_command (40 samples, 27.21%)</title><rect x="355.2" y="485" width="321.1" height="15.0" fill="rgb(251,71,6)" rx="2" ry="2" />
<text  x="358.17" y="495.5" >zmq::object_t::send_command</text>
</g>
<g >
<title>__GI___libc_write (40 samples, 27.21%)</title><rect x="355.2" y="437" width="321.1" height="15.0" fill="rgb(221,163,38)" rx="2" ry="2" />
<text  x="358.17" y="447.5" >__GI___libc_write</text>
</g>
<g >
<title>zmq::pipe_t::flush (40 samples, 27.21%)</title><rect x="355.2" y="517" width="321.1" height="15.0" fill="rgb(218,38,20)" rx="2" ry="2" />
<text  x="358.17" y="527.5" >zmq::pipe_t::flush</text>
</g>
<g >
<title>zmq::fq_t::recvpipe (1 samples, 0.68%)</title><rect x="740.5" y="501" width="8.0" height="15.0" fill="rgb(222,156,32)" rx="2" ry="2" />
<text  x="743.48" y="511.5" ></text>
</g>
<g >
<title>entry_SYSCALL_64_after_hwframe (6 samples, 4.08%)</title><rect x="684.3" y="581" width="48.1" height="15.0" fill="rgb(253,225,18)" rx="2" ry="2" />
<text  x="687.29" y="591.5" >entr..</text>
</g>
<g >
<title>ip_rcv_finish (42 samples, 28.57%)</title><rect x="10.0" y="197" width="337.1" height="15.0" fill="rgb(216,88,46)" rx="2" ry="2" />
<text  x="13.00" y="207.5" >ip_rcv_finish</text>
</g>
<g >
<title>vfs_write (40 samples, 27.21%)</title><rect x="355.2" y="373" width="321.1" height="15.0" fill="rgb(223,31,46)" rx="2" ry="2" />
<text  x="358.17" y="383.5" >vfs_write</text>
</g>
<g >
<title>__tcp_transmit_skb (42 samples, 28.57%)</title><rect x="10.0" y="437" width="337.1" height="15.0" fill="rgb(234,112,12)" rx="2" ry="2" />
<text  x="13.00" y="447.5" >__tcp_transmit_skb</text>
</g>
<g >
<title>__wake_up_common_lock (42 samples, 28.57%)</title><rect x="10.0" y="53" width="337.1" height="15.0" fill="rgb(214,24,15)" rx="2" ry="2" />
<text  x="13.00" y="63.5" >__wake_up_common_lock</text>
</g>
<g >
<title>__tcp_push_pending_frames (42 samples, 28.57%)</title><rect x="10.0" y="469" width="337.1" height="15.0" fill="rgb(205,10,18)" rx="2" ry="2" />
<text  x="13.00" y="479.5" >__tcp_push_pending_frames</text>
</g>
<g >
<title>zmq::rep_t::xsend (54 samples, 36.73%)</title><rect x="748.5" y="533" width="433.5" height="15.0" fill="rgb(228,184,15)" rx="2" ry="2" />
<text  x="751.50" y="543.5" >zmq::rep_t::xsend</text>
</g>
<g >
<title>zmq::epoll_t::loop (41 samples, 27.89%)</title><rect x="347.1" y="581" width="329.2" height="15.0" fill="rgb(217,136,38)" rx="2" ry="2" />
<text  x="350.14" y="591.5" >zmq::epoll_t::loop</text>
</g>
<g >
<title>start_thread (41 samples, 27.89%)</title><rect x="347.1" y="629" width="329.2" height="15.0" fill="rgb(239,25,38)" rx="2" ry="2" />
<text  x="350.14" y="639.5" >start_thread</text>
</g>
</g>
</svg>
