<?xml version="1.0" standalone="no"?>
<!DOCTYPE svg PUBLIC "-//W3C//DTD SVG 1.1//EN" "http://www.w3.org/Graphics/SVG/1.1/DTD/svg11.dtd">
<svg version="1.1" width="1200" height="694" onload="init(evt)" viewBox="0 0 1200 694" xmlns="http://www.w3.org/2000/svg" xmlns:xlink="http://www.w3.org/1999/xlink">
<!-- Flame graph stack visualization. See https://github.com/brendangregg/FlameGraph for latest version, and http://www.brendangregg.com/flamegraphs.html for examples. -->
<!-- NOTES:  -->
<defs>
	<linearGradient id="background" y1="0" y2="1" x1="0" x2="0" >
		<stop stop-color="#eeeeee" offset="5%" />
		<stop stop-color="#eeeeb0" offset="95%" />
	</linearGradient>
</defs>
<style type="text/css">
	text { font-family:Verdana; font-size:12px; fill:rgb(0,0,0); }
	#search, #ignorecase { opacity:0.1; cursor:pointer; }
	#search:hover, #search.show, #ignorecase:hover, #ignorecase.show { opacity:1; }
	#subtitle { text-anchor:middle; font-color:rgb(160,160,160); }
	#title { text-anchor:middle; font-size:17px}
	#unzoom { cursor:pointer; }
	#frames > *:hover { stroke:black; stroke-width:0.5; cursor:pointer; }
	.hide { display:none; }
	.parent { opacity:0.5; }
</style>
<script type="text/ecmascript">
<![CDATA[
	"use strict";
	var details, searchbtn, unzoombtn, matchedtxt, svg, searching, currentSearchTerm, ignorecase, ignorecaseBtn;
	function init(evt) {
		details = document.getElementById("details").firstChild;
		searchbtn = document.getElementById("search");
		ignorecaseBtn = document.getElementById("ignorecase");
		unzoombtn = document.getElementById("unzoom");
		matchedtxt = document.getElementById("matched");
		svg = document.getElementsByTagName("svg")[0];
		searching = 0;
		currentSearchTerm = null;
	}

	window.addEventListener("click", function(e) {
		var target = find_group(e.target);
		if (target) {
			if (target.nodeName == "a") {
				if (e.ctrlKey === false) return;
				e.preventDefault();
			}
			if (target.classList.contains("parent")) unzoom();
			zoom(target);
		}
		else if (e.target.id == "unzoom") unzoom();
		else if (e.target.id == "search") search_prompt();
		else if (e.target.id == "ignorecase") toggle_ignorecase();
	}, false)

	// mouse-over for info
	// show
	window.addEventListener("mouseover", function(e) {
		var target = find_group(e.target);
		if (target) details.nodeValue = "Function: " + g_to_text(target);
	}, false)

	// clear
	window.addEventListener("mouseout", function(e) {
		var target = find_group(e.target);
		if (target) details.nodeValue = ' ';
	}, false)

	// ctrl-F for search
	window.addEventListener("keydown",function (e) {
		if (e.keyCode === 114 || (e.ctrlKey && e.keyCode === 70)) {
			e.preventDefault();
			search_prompt();
		}
	}, false)

	// ctrl-I to toggle case-sensitive search
	window.addEventListener("keydown",function (e) {
		if (e.ctrlKey && e.keyCode === 73) {
			e.preventDefault();
			toggle_ignorecase();
		}
	}, false)

	// functions
	function find_child(node, selector) {
		var children = node.querySelectorAll(selector);
		if (children.length) return children[0];
		return;
	}
	function find_group(node) {
		var parent = node.parentElement;
		if (!parent) return;
		if (parent.id == "frames") return node;
		return find_group(parent);
	}
	function orig_save(e, attr, val) {
		if (e.attributes["_orig_" + attr] != undefined) return;
		if (e.attributes[attr] == undefined) return;
		if (val == undefined) val = e.attributes[attr].value;
		e.setAttribute("_orig_" + attr, val);
	}
	function orig_load(e, attr) {
		if (e.attributes["_orig_"+attr] == undefined) return;
		e.attributes[attr].value = e.attributes["_orig_" + attr].value;
		e.removeAttribute("_orig_"+attr);
	}
	function g_to_text(e) {
		var text = find_child(e, "title").firstChild.nodeValue;
		return (text)
	}
	function g_to_func(e) {
		var func = g_to_text(e);
		// if there's any manipulation we want to do to the function
		// name before it's searched, do it here before returning.
		return (func);
	}
	function update_text(e) {
		var r = find_child(e, "rect");
		var t = find_child(e, "text");
		var w = parseFloat(r.attributes.width.value) -3;
		var txt = find_child(e, "title").textContent.replace(/\([^(]*\)$/,"");
		t.attributes.x.value = parseFloat(r.attributes.x.value) + 3;

		// Smaller than this size won't fit anything
		if (w < 2 * 12 * 0.59) {
			t.textContent = "";
			return;
		}

		t.textContent = txt;
		// Fit in full text width
		if (/^ *$/.test(txt) || t.getSubStringLength(0, txt.length) < w)
			return;

		for (var x = txt.length - 2; x > 0; x--) {
			if (t.getSubStringLength(0, x + 2) <= w) {
				t.textContent = txt.substring(0, x) + "..";
				return;
			}
		}
		t.textContent = "";
	}

	// zoom
	function zoom_reset(e) {
		if (e.attributes != undefined) {
			orig_load(e, "x");
			orig_load(e, "width");
		}
		if (e.childNodes == undefined) return;
		for (var i = 0, c = e.childNodes; i < c.length; i++) {
			zoom_reset(c[i]);
		}
	}
	function zoom_child(e, x, ratio) {
		if (e.attributes != undefined) {
			if (e.attributes.x != undefined) {
				orig_save(e, "x");
				e.attributes.x.value = (parseFloat(e.attributes.x.value) - x - 10) * ratio + 10;
				if (e.tagName == "text")
					e.attributes.x.value = find_child(e.parentNode, "rect[x]").attributes.x.value + 3;
			}
			if (e.attributes.width != undefined) {
				orig_save(e, "width");
				e.attributes.width.value = parseFloat(e.attributes.width.value) * ratio;
			}
		}

		if (e.childNodes == undefined) return;
		for (var i = 0, c = e.childNodes; i < c.length; i++) {
			zoom_child(c[i], x - 10, ratio);
		}
	}
	function zoom_parent(e) {
		if (e.attributes) {
			if (e.attributes.x != undefined) {
				orig_save(e, "x");
				e.attributes.x.value = 10;
			}
			if (e.attributes.width != undefined) {
				orig_save(e, "width");
				e.attributes.width.value = parseInt(svg.width.baseVal.value) - (10 * 2);
			}
		}
		if (e.childNodes == undefined) return;
		for (var i = 0, c = e.childNodes; i < c.length; i++) {
			zoom_parent(c[i]);
		}
	}
	function zoom(node) {
		var attr = find_child(node, "rect").attributes;
		var width = parseFloat(attr.width.value);
		var xmin = parseFloat(attr.x.value);
		var xmax = parseFloat(xmin + width);
		var ymin = parseFloat(attr.y.value);
		var ratio = (svg.width.baseVal.value - 2 * 10) / width;

		// XXX: Workaround for JavaScript float issues (fix me)
		var fudge = 0.0001;

		unzoombtn.classList.remove("hide");

		var el = document.getElementById("frames").children;
		for (var i = 0; i < el.length; i++) {
			var e = el[i];
			var a = find_child(e, "rect").attributes;
			var ex = parseFloat(a.x.value);
			var ew = parseFloat(a.width.value);
			var upstack;
			// Is it an ancestor
			if (0 == 0) {
				upstack = parseFloat(a.y.value) > ymin;
			} else {
				upstack = parseFloat(a.y.value) < ymin;
			}
			if (upstack) {
				// Direct ancestor
				if (ex <= xmin && (ex+ew+fudge) >= xmax) {
					e.classList.add("parent");
					zoom_parent(e);
					update_text(e);
				}
				// not in current path
				else
					e.classList.add("hide");
			}
			// Children maybe
			else {
				// no common path
				if (ex < xmin || ex + fudge >= xmax) {
					e.classList.add("hide");
				}
				else {
					zoom_child(e, xmin, ratio);
					update_text(e);
				}
			}
		}
		search();
	}
	function unzoom() {
		unzoombtn.classList.add("hide");
		var el = document.getElementById("frames").children;
		for(var i = 0; i < el.length; i++) {
			el[i].classList.remove("parent");
			el[i].classList.remove("hide");
			zoom_reset(el[i]);
			update_text(el[i]);
		}
		search();
	}

	// search
	function toggle_ignorecase() {
		ignorecase = !ignorecase;
		if (ignorecase) {
			ignorecaseBtn.classList.add("show");
		} else {
			ignorecaseBtn.classList.remove("show");
		}
		reset_search();
		search();
	}
	function reset_search() {
		var el = document.querySelectorAll("#frames rect");
		for (var i = 0; i < el.length; i++) {
			orig_load(el[i], "fill")
		}
	}
	function search_prompt() {
		if (!searching) {
			var term = prompt("Enter a search term (regexp " +
			    "allowed, eg: ^ext4_)"
			    + (ignorecase ? ", ignoring case" : "")
			    + "\nPress Ctrl-i to toggle case sensitivity", "");
			if (term != null) {
				currentSearchTerm = term;
				search();
			}
		} else {
			reset_search();
			searching = 0;
			currentSearchTerm = null;
			searchbtn.classList.remove("show");
			searchbtn.firstChild.nodeValue = "Search"
			matchedtxt.classList.add("hide");
			matchedtxt.firstChild.nodeValue = ""
		}
	}
	function search(term) {
		if (currentSearchTerm === null) return;
		var term = currentSearchTerm;

		var re = new RegExp(term, ignorecase ? 'i' : '');
		var el = document.getElementById("frames").children;
		var matches = new Object();
		var maxwidth = 0;
		for (var i = 0; i < el.length; i++) {
			var e = el[i];
			var func = g_to_func(e);
			var rect = find_child(e, "rect");
			if (func == null || rect == null)
				continue;

			// Save max width. Only works as we have a root frame
			var w = parseFloat(rect.attributes.width.value);
			if (w > maxwidth)
				maxwidth = w;

			if (func.match(re)) {
				// highlight
				var x = parseFloat(rect.attributes.x.value);
				orig_save(rect, "fill");
				rect.attributes.fill.value = "rgb(230,0,230)";

				// remember matches
				if (matches[x] == undefined) {
					matches[x] = w;
				} else {
					if (w > matches[x]) {
						// overwrite with parent
						matches[x] = w;
					}
				}
				searching = 1;
			}
		}
		if (!searching)
			return;

		searchbtn.classList.add("show");
		searchbtn.firstChild.nodeValue = "Reset Search";

		// calculate percent matched, excluding vertical overlap
		var count = 0;
		var lastx = -1;
		var lastw = 0;
		var keys = Array();
		for (k in matches) {
			if (matches.hasOwnProperty(k))
				keys.push(k);
		}
		// sort the matched frames by their x location
		// ascending, then width descending
		keys.sort(function(a, b){
			return a - b;
		});
		// Step through frames saving only the biggest bottom-up frames
		// thanks to the sort order. This relies on the tree property
		// where children are always smaller than their parents.
		var fudge = 0.0001;	// JavaScript floating point
		for (var k in keys) {
			var x = parseFloat(keys[k]);
			var w = matches[keys[k]];
			if (x >= lastx + lastw - fudge) {
				count += w;
				lastx = x;
				lastw = w;
			}
		}
		// display matched percent
		matchedtxt.classList.remove("hide");
		var pct = 100 * count / maxwidth;
		if (pct != 100) pct = pct.toFixed(1)
		matchedtxt.firstChild.nodeValue = "Matched: " + pct + "%";
	}
]]>
</script>
<rect x="0.0" y="0" width="1200.0" height="694.0" fill="url(#background)"  />
<text id="title" x="600.00" y="24" >Flame Graph</text>
<text id="details" x="10.00" y="677" > </text>
<text id="unzoom" x="10.00" y="24" class="hide">Reset Zoom</text>
<text id="search" x="1090.00" y="24" >Search</text>
<text id="ignorecase" x="1174.00" y="24" >ic</text>
<text id="matched" x="1090.00" y="677" > </text>
<g id="frames">
<g >
<title>tcp_sendmsg (36 samples, 36.73%)</title><rect x="10.0" y="501" width="433.5" height="15.0" fill="rgb(250,44,18)" rx="2" ry="2" />
<text  x="13.00" y="511.5" >tcp_sendmsg</text>
</g>
<g >
<title>zmq::object_t::send_command (25 samples, 25.51%)</title><rect x="889.0" y="421" width="301.0" height="15.0" fill="rgb(250,53,20)" rx="2" ry="2" />
<text  x="891.98" y="431.5" >zmq::object_t::send_command</text>
</g>
<g >
<title>__schedule (1 samples, 1.02%)</title><rect x="443.5" y="437" width="12.0" height="15.0" fill="rgb(240,90,9)" rx="2" ry="2" />
<text  x="446.47" y="447.5" ></text>
</g>
<g >
<title>__libc_start_main (25 samples, 25.51%)</title><rect x="889.0" y="597" width="301.0" height="15.0" fill="rgb(221,111,49)" rx="2" ry="2" />
<text  x="891.98" y="607.5" >__libc_start_main</text>
</g>
<g >
<title>tcp_push (36 samples, 36.73%)</title><rect x="10.0" y="469" width="433.5" height="15.0" fill="rgb(234,195,29)" rx="2" ry="2" />
<text  x="13.00" y="479.5" >tcp_push</text>
</g>
<g >
<title>zmq::object_t::send_activate_read (35 samples, 35.71%)</title><rect x="467.6" y="485" width="421.4" height="15.0" fill="rgb(212,74,51)" rx="2" ry="2" />
<text  x="470.55" y="495.5" >zmq::object_t::send_activate_read</text>
</g>
<g >
<title>__lock_text_start (36 samples, 36.73%)</title><rect x="10.0" y="37" width="433.5" height="15.0" fill="rgb(250,57,31)" rx="2" ry="2" />
<text  x="13.00" y="47.5" >__lock_text_start</text>
</g>
<g >
<title>zmq::ctx_t::send_command (35 samples, 35.71%)</title><rect x="467.6" y="453" width="421.4" height="15.0" fill="rgb(238,141,44)" rx="2" ry="2" />
<text  x="470.55" y="463.5" >zmq::ctx_t::send_command</text>
</g>
<g >
<title>__wake_up_common_lock (36 samples, 36.73%)</title><rect x="10.0" y="53" width="433.5" height="15.0" fill="rgb(222,105,32)" rx="2" ry="2" />
<text  x="13.00" y="63.5" >__wake_up_common_lock</text>
</g>
<g >
<title>entry_SYSCALL_64_after_hwframe (1 samples, 1.02%)</title><rect x="443.5" y="549" width="12.0" height="15.0" fill="rgb(230,210,16)" rx="2" ry="2" />
<text  x="446.47" y="559.5" ></text>
</g>
<g >
<title>zmq::lb_t::sendpipe (25 samples, 25.51%)</title><rect x="889.0" y="469" width="301.0" height="15.0" fill="rgb(230,20,41)" rx="2" ry="2" />
<text  x="891.98" y="479.5" >zmq::lb_t::sendpipe</text>
</g>
<g >
<title>__wake_up_sync_key (36 samples, 36.73%)</title><rect x="10.0" y="69" width="433.5" height="15.0" fill="rgb(209,63,31)" rx="2" ry="2" />
<text  x="13.00" y="79.5" >__wake_up_sync_key</text>
</g>
<g >
<title>do_syscall_64 (25 samples, 25.51%)</title><rect x="889.0" y="341" width="301.0" height="15.0" fill="rgb(211,191,18)" rx="2" ry="2" />
<text  x="891.98" y="351.5" >do_syscall_64</text>
</g>
<g >
<title>[unknown] (25 samples, 25.51%)</title><rect x="889.0" y="613" width="301.0" height="15.0" fill="rgb(235,47,51)" rx="2" ry="2" />
<text  x="891.98" y="623.5" >[unknown]</text>
</g>
<g >
<title>main (25 samples, 25.51%)</title><rect x="889.0" y="581" width="301.0" height="15.0" fill="rgb(214,158,36)" rx="2" ry="2" />
<text  x="891.98" y="591.5" >main</text>
</g>
<g >
<title>__vfs_write (35 samples, 35.71%)</title><rect x="467.6" y="341" width="421.4" height="15.0" fill="rgb(248,221,21)" rx="2" ry="2" />
<text  x="470.55" y="351.5" >__vfs_write</text>
</g>
<g >
<title>all (98 samples, 100%)</title><rect x="10.0" y="645" width="1180.0" height="15.0" fill="rgb(244,86,47)" rx="2" ry="2" />
<text  x="13.00" y="655.5" ></text>
</g>
<g >
<title>__GI___libc_write (25 samples, 25.51%)</title><rect x="889.0" y="373" width="301.0" height="15.0" fill="rgb(241,72,41)" rx="2" ry="2" />
<text  x="891.98" y="383.5" >__GI___libc_write</text>
</g>
<g >
<title>schedule_hrtimeout_range (1 samples, 1.02%)</title><rect x="443.5" y="485" width="12.0" height="15.0" fill="rgb(233,99,29)" rx="2" ry="2" />
<text  x="446.47" y="495.5" ></text>
</g>
<g >
<title>__softirqentry_text_start (36 samples, 36.73%)</title><rect x="10.0" y="277" width="433.5" height="15.0" fill="rgb(213,5,48)" rx="2" ry="2" />
<text  x="13.00" y="287.5" >__softirqentry_text_start</text>
</g>
<g >
<title>zmq::object_t::send_command (35 samples, 35.71%)</title><rect x="467.6" y="469" width="421.4" height="15.0" fill="rgb(238,213,41)" rx="2" ry="2" />
<text  x="470.55" y="479.5" >zmq::object_t::send_command</text>
</g>
<g >
<title>tcp_rcv_established (36 samples, 36.73%)</title><rect x="10.0" y="101" width="433.5" height="15.0" fill="rgb(232,114,52)" rx="2" ry="2" />
<text  x="13.00" y="111.5" >tcp_rcv_established</text>
</g>
<g >
<title>schedule (1 samples, 1.02%)</title><rect x="443.5" y="453" width="12.0" height="15.0" fill="rgb(212,52,53)" rx="2" ry="2" />
<text  x="446.47" y="463.5" ></text>
</g>
<g >
<title>ip_local_deliver (36 samples, 36.73%)</title><rect x="10.0" y="165" width="433.5" height="15.0" fill="rgb(243,164,11)" rx="2" ry="2" />
<text  x="13.00" y="175.5" >ip_local_deliver</text>
</g>
<g >
<title>zmq::mailbox_t::send (35 samples, 35.71%)</title><rect x="467.6" y="437" width="421.4" height="15.0" fill="rgb(233,34,29)" rx="2" ry="2" />
<text  x="470.55" y="447.5" >zmq::mailbox_t::send</text>
</g>
<g >
<title>tcp_sendmsg_locked (36 samples, 36.73%)</title><rect x="10.0" y="485" width="433.5" height="15.0" fill="rgb(215,201,51)" rx="2" ry="2" />
<text  x="13.00" y="495.5" >tcp_sendmsg_locked</text>
</g>
<g >
<title>ip_output (36 samples, 36.73%)</title><rect x="10.0" y="373" width="433.5" height="15.0" fill="rgb(232,161,42)" rx="2" ry="2" />
<text  x="13.00" y="383.5" >ip_output</text>
</g>
<g >
<title>__tcp_transmit_skb (36 samples, 36.73%)</title><rect x="10.0" y="421" width="433.5" height="15.0" fill="rgb(234,106,28)" rx="2" ry="2" />
<text  x="13.00" y="431.5" >__tcp_transmit_skb</text>
</g>
<g >
<title>ip_rcv_finish (36 samples, 36.73%)</title><rect x="10.0" y="181" width="433.5" height="15.0" fill="rgb(211,66,24)" rx="2" ry="2" />
<text  x="13.00" y="191.5" >ip_rcv_finish</text>
</g>
<g >
<title>sys_sendto (36 samples, 36.73%)</title><rect x="10.0" y="565" width="433.5" height="15.0" fill="rgb(254,65,41)" rx="2" ry="2" />
<text  x="13.00" y="575.5" >sys_sendto</text>
</g>
<g >
<title>ip_local_out (36 samples, 36.73%)</title><rect x="10.0" y="389" width="433.5" height="15.0" fill="rgb(227,177,44)" rx="2" ry="2" />
<text  x="13.00" y="399.5" >ip_local_out</text>
</g>
<g >
<title>ip_local_deliver_finish (36 samples, 36.73%)</title><rect x="10.0" y="149" width="433.5" height="15.0" fill="rgb(251,156,0)" rx="2" ry="2" />
<text  x="13.00" y="159.5" >ip_local_deliver_finish</text>
</g>
<g >
<title>do_syscall_64 (36 samples, 36.73%)</title><rect x="10.0" y="581" width="433.5" height="15.0" fill="rgb(232,40,17)" rx="2" ry="2" />
<text  x="13.00" y="591.5" >do_syscall_64</text>
</g>
<g >
<title>ip_rcv (36 samples, 36.73%)</title><rect x="10.0" y="197" width="433.5" height="15.0" fill="rgb(226,203,44)" rx="2" ry="2" />
<text  x="13.00" y="207.5" >ip_rcv</text>
</g>
<g >
<title>zmq::epoll_t::loop (36 samples, 36.73%)</title><rect x="455.5" y="565" width="433.5" height="15.0" fill="rgb(240,94,20)" rx="2" ry="2" />
<text  x="458.51" y="575.5" >zmq::epoll_t::loop</text>
</g>
<g >
<title>__local_bh_enable_ip (36 samples, 36.73%)</title><rect x="10.0" y="325" width="433.5" height="15.0" fill="rgb(239,167,0)" rx="2" ry="2" />
<text  x="13.00" y="335.5" >__local_bh_enable_ip</text>
</g>
<g >
<title>zmq::worker_poller_base_t::worker_routine (37 samples, 37.76%)</title><rect x="443.5" y="581" width="445.5" height="15.0" fill="rgb(252,83,54)" rx="2" ry="2" />
<text  x="446.47" y="591.5" >zmq::worker_poller_base_t::worker_routine</text>
</g>
<g >
<title>__GI___libc_write (35 samples, 35.71%)</title><rect x="467.6" y="421" width="421.4" height="15.0" fill="rgb(221,89,42)" rx="2" ry="2" />
<text  x="470.55" y="431.5" >__GI___libc_write</text>
</g>
<g >
<title>zmq::stream_engine_base_t::in_event (35 samples, 35.71%)</title><rect x="467.6" y="549" width="421.4" height="15.0" fill="rgb(246,124,54)" rx="2" ry="2" />
<text  x="470.55" y="559.5" >zmq::stream_engine_base_t::in_event</text>
</g>
<g >
<title>zmq::object_t::send_activate_read (25 samples, 25.51%)</title><rect x="889.0" y="437" width="301.0" height="15.0" fill="rgb(243,143,7)" rx="2" ry="2" />
<text  x="891.98" y="447.5" >zmq::object_t::send_activate_read</text>
</g>
<g >
<title>[libc-2.23.so] (1 samples, 1.02%)</title><rect x="443.5" y="565" width="12.0" height="15.0" fill="rgb(228,4,35)" rx="2" ry="2" />
<text  x="446.47" y="575.5" ></text>
</g>
<g >
<title>do_syscall_64 (35 samples, 35.71%)</title><rect x="467.6" y="389" width="421.4" height="15.0" fill="rgb(242,148,29)" rx="2" ry="2" />
<text  x="470.55" y="399.5" >do_syscall_64</text>
</g>
<g >
<title>vfs_write (25 samples, 25.51%)</title><rect x="889.0" y="309" width="301.0" height="15.0" fill="rgb(236,20,32)" rx="2" ry="2" />
<text  x="891.98" y="319.5" >vfs_write</text>
</g>
<g >
<title>ip_queue_xmit (36 samples, 36.73%)</title><rect x="10.0" y="405" width="433.5" height="15.0" fill="rgb(219,190,22)" rx="2" ry="2" />
<text  x="13.00" y="415.5" >ip_queue_xmit</text>
</g>
<g >
<title>do_softirq_own_stack (36 samples, 36.73%)</title><rect x="10.0" y="293" width="433.5" height="15.0" fill="rgb(211,14,15)" rx="2" ry="2" />
<text  x="13.00" y="303.5" >do_softirq_own_stack</text>
</g>
<g >
<title>sys_write (35 samples, 35.71%)</title><rect x="467.6" y="373" width="421.4" height="15.0" fill="rgb(231,200,45)" rx="2" ry="2" />
<text  x="470.55" y="383.5" >sys_write</text>
</g>
<g >
<title>eventfd_write (35 samples, 35.71%)</title><rect x="467.6" y="325" width="421.4" height="15.0" fill="rgb(235,32,21)" rx="2" ry="2" />
<text  x="470.55" y="335.5" >eventfd_write</text>
</g>
<g >
<title>__netif_receive_skb (36 samples, 36.73%)</title><rect x="10.0" y="229" width="433.5" height="15.0" fill="rgb(229,156,32)" rx="2" ry="2" />
<text  x="13.00" y="239.5" >__netif_receive_skb</text>
</g>
<g >
<title>sock_def_readable (36 samples, 36.73%)</title><rect x="10.0" y="85" width="433.5" height="15.0" fill="rgb(254,71,43)" rx="2" ry="2" />
<text  x="13.00" y="95.5" >sock_def_readable</text>
</g>
<g >
<title>zmq::pipe_t::flush (25 samples, 25.51%)</title><rect x="889.0" y="453" width="301.0" height="15.0" fill="rgb(252,111,7)" rx="2" ry="2" />
<text  x="891.98" y="463.5" >zmq::pipe_t::flush</text>
</g>
<g >
<title>sock_sendmsg (36 samples, 36.73%)</title><rect x="10.0" y="533" width="433.5" height="15.0" fill="rgb(236,19,27)" rx="2" ry="2" />
<text  x="13.00" y="543.5" >sock_sendmsg</text>
</g>
<g >
<title>ip_finish_output (36 samples, 36.73%)</title><rect x="10.0" y="357" width="433.5" height="15.0" fill="rgb(236,107,40)" rx="2" ry="2" />
<text  x="13.00" y="367.5" >ip_finish_output</text>
</g>
<g >
<title>tcp_v4_do_rcv (36 samples, 36.73%)</title><rect x="10.0" y="117" width="433.5" height="15.0" fill="rgb(226,111,4)" rx="2" ry="2" />
<text  x="13.00" y="127.5" >tcp_v4_do_rcv</text>
</g>
<g >
<title>entry_SYSCALL_64_after_hwframe (25 samples, 25.51%)</title><rect x="889.0" y="357" width="301.0" height="15.0" fill="rgb(232,81,33)" rx="2" ry="2" />
<text  x="891.98" y="367.5" >entry_SYSCALL_64_after_hwframe</text>
</g>
<g >
<title>zmq::stream_engine_base_t::in_event_internal (35 samples, 35.71%)</title><rect x="467.6" y="533" width="421.4" height="15.0" fill="rgb(207,112,7)" rx="2" ry="2" />
<text  x="470.55" y="543.5" >zmq::stream_engine_base_t::in_event_internal</text>
</g>
<g >
<title>do_syscall_64 (1 samples, 1.02%)</title><rect x="443.5" y="533" width="12.0" height="15.0" fill="rgb(215,207,48)" rx="2" ry="2" />
<text  x="446.47" y="543.5" ></text>
</g>
<g >
<title>zmq_send (25 samples, 25.51%)</title><rect x="889.0" y="565" width="301.0" height="15.0" fill="rgb(210,49,15)" rx="2" ry="2" />
<text  x="891.98" y="575.5" >zmq_send</text>
</g>
<g >
<title>zmq::mailbox_t::recv (1 samples, 1.02%)</title><rect x="455.5" y="533" width="12.1" height="15.0" fill="rgb(220,55,24)" rx="2" ry="2" />
<text  x="458.51" y="543.5" ></text>
</g>
<g >
<title>entry_SYSCALL_64_after_hwframe (1 samples, 1.02%)</title><rect x="455.5" y="501" width="12.1" height="15.0" fill="rgb(245,134,39)" rx="2" ry="2" />
<text  x="458.51" y="511.5" ></text>
</g>
<g >
<title>sys_epoll_wait (1 samples, 1.02%)</title><rect x="443.5" y="517" width="12.0" height="15.0" fill="rgb(250,140,39)" rx="2" ry="2" />
<text  x="446.47" y="527.5" ></text>
</g>
<g >
<title>process_backlog (36 samples, 36.73%)</title><rect x="10.0" y="245" width="433.5" height="15.0" fill="rgb(235,171,2)" rx="2" ry="2" />
<text  x="13.00" y="255.5" >process_backlog</text>
</g>
<g >
<title>zmq::io_thread_t::in_event (1 samples, 1.02%)</title><rect x="455.5" y="549" width="12.1" height="15.0" fill="rgb(224,177,1)" rx="2" ry="2" />
<text  x="458.51" y="559.5" ></text>
</g>
<g >
<title>entry_SYSCALL_64_after_hwframe (36 samples, 36.73%)</title><rect x="10.0" y="597" width="433.5" height="15.0" fill="rgb(212,77,2)" rx="2" ry="2" />
<text  x="13.00" y="607.5" >entry_SYSCALL_64_after_hwframe</text>
</g>
<g >
<title>__vfs_write (25 samples, 25.51%)</title><rect x="889.0" y="293" width="301.0" height="15.0" fill="rgb(217,203,42)" rx="2" ry="2" />
<text  x="891.98" y="303.5" >__vfs_write</text>
</g>
<g >
<title>schedule_hrtimeout_range_clock (1 samples, 1.02%)</title><rect x="443.5" y="469" width="12.0" height="15.0" fill="rgb(235,205,7)" rx="2" ry="2" />
<text  x="446.47" y="479.5" ></text>
</g>
<g >
<title>s_sendmsg (25 samples, 25.51%)</title><rect x="889.0" y="549" width="301.0" height="15.0" fill="rgb(249,26,51)" rx="2" ry="2" />
<text  x="891.98" y="559.5" >s_sendmsg</text>
</g>
<g >
<title>ip_finish_output2 (36 samples, 36.73%)</title><rect x="10.0" y="341" width="433.5" height="15.0" fill="rgb(249,105,3)" rx="2" ry="2" />
<text  x="13.00" y="351.5" >ip_finish_output2</text>
</g>
<g >
<title>zmq::ctx_t::send_command (25 samples, 25.51%)</title><rect x="889.0" y="405" width="301.0" height="15.0" fill="rgb(235,123,40)" rx="2" ry="2" />
<text  x="891.98" y="415.5" >zmq::ctx_t::send_command</text>
</g>
<g >
<title>net_rx_action (36 samples, 36.73%)</title><rect x="10.0" y="261" width="433.5" height="15.0" fill="rgb(207,170,25)" rx="2" ry="2" />
<text  x="13.00" y="271.5" >net_rx_action</text>
</g>
<g >
<title>sys_write (25 samples, 25.51%)</title><rect x="889.0" y="325" width="301.0" height="15.0" fill="rgb(238,4,47)" rx="2" ry="2" />
<text  x="891.98" y="335.5" >sys_write</text>
</g>
<g >
<title>SYSC_sendto (36 samples, 36.73%)</title><rect x="10.0" y="549" width="433.5" height="15.0" fill="rgb(240,11,12)" rx="2" ry="2" />
<text  x="13.00" y="559.5" >SYSC_sendto</text>
</g>
<g >
<title>eventfd_write (25 samples, 25.51%)</title><rect x="889.0" y="277" width="301.0" height="15.0" fill="rgb(246,10,38)" rx="2" ry="2" />
<text  x="891.98" y="287.5" >eventfd_write</text>
</g>
<g >
<title>ep_poll (1 samples, 1.02%)</title><rect x="443.5" y="501" width="12.0" height="15.0" fill="rgb(226,103,11)" rx="2" ry="2" />
<text  x="446.47" y="511.5" ></text>
</g>
<g >
<title>thread_routine (37 samples, 37.76%)</title><rect x="443.5" y="597" width="445.5" height="15.0" fill="rgb(206,75,35)" rx="2" ry="2" />
<text  x="446.47" y="607.5" >thread_routine</text>
</g>
<g >
<title>vfs_write (35 samples, 35.71%)</title><rect x="467.6" y="357" width="421.4" height="15.0" fill="rgb(243,105,31)" rx="2" ry="2" />
<text  x="470.55" y="367.5" >vfs_write</text>
</g>
<g >
<title>entry_SYSCALL_64_after_hwframe (35 samples, 35.71%)</title><rect x="467.6" y="405" width="421.4" height="15.0" fill="rgb(243,217,23)" rx="2" ry="2" />
<text  x="470.55" y="415.5" >entry_SYSCALL_64_after_hwframe</text>
</g>
<g >
<title>__netif_receive_skb_core (36 samples, 36.73%)</title><rect x="10.0" y="213" width="433.5" height="15.0" fill="rgb(216,176,36)" rx="2" ry="2" />
<text  x="13.00" y="223.5" >__netif_receive_skb_core</text>
</g>
<g >
<title>__libc_send (36 samples, 36.73%)</title><rect x="10.0" y="613" width="433.5" height="15.0" fill="rgb(244,174,1)" rx="2" ry="2" />
<text  x="13.00" y="623.5" >__libc_send</text>
</g>
<g >
<title>ZMQbg/IO/0 (73 samples, 74.49%)</title><rect x="10.0" y="629" width="879.0" height="15.0" fill="rgb(211,57,35)" rx="2" ry="2" />
<text  x="13.00" y="639.5" >ZMQbg/IO/0</text>
</g>
<g >
<title>do_syscall_64 (1 samples, 1.02%)</title><rect x="455.5" y="485" width="12.1" height="15.0" fill="rgb(229,176,40)" rx="2" ry="2" />
<text  x="458.51" y="495.5" ></text>
</g>
<g >
<title>inet_sendmsg (36 samples, 36.73%)</title><rect x="10.0" y="517" width="433.5" height="15.0" fill="rgb(253,4,12)" rx="2" ry="2" />
<text  x="13.00" y="527.5" >inet_sendmsg</text>
</g>
<g >
<title>hwclient (25 samples, 25.51%)</title><rect x="889.0" y="629" width="301.0" height="15.0" fill="rgb(232,124,2)" rx="2" ry="2" />
<text  x="891.98" y="639.5" >hwclient</text>
</g>
<g >
<title>zmq::socket_base_t::send (25 samples, 25.51%)</title><rect x="889.0" y="533" width="301.0" height="15.0" fill="rgb(229,116,45)" rx="2" ry="2" />
<text  x="891.98" y="543.5" >zmq::socket_base_t::send</text>
</g>
<g >
<title>__tcp_push_pending_frames (36 samples, 36.73%)</title><rect x="10.0" y="453" width="433.5" height="15.0" fill="rgb(210,158,6)" rx="2" ry="2" />
<text  x="13.00" y="463.5" >__tcp_push_pending_frames</text>
</g>
<g >
<title>[libc-2.23.so] (1 samples, 1.02%)</title><rect x="455.5" y="517" width="12.1" height="15.0" fill="rgb(232,120,34)" rx="2" ry="2" />
<text  x="458.51" y="527.5" ></text>
</g>
<g >
<title>zmq::dealer_t::xsend (25 samples, 25.51%)</title><rect x="889.0" y="501" width="301.0" height="15.0" fill="rgb(214,156,40)" rx="2" ry="2" />
<text  x="891.98" y="511.5" >zmq::dealer_t::xsend</text>
</g>
<g >
<title>zmq::req_t::xsend (25 samples, 25.51%)</title><rect x="889.0" y="517" width="301.0" height="15.0" fill="rgb(218,218,50)" rx="2" ry="2" />
<text  x="891.98" y="527.5" >zmq::req_t::xsend</text>
</g>
<g >
<title>start_thread (37 samples, 37.76%)</title><rect x="443.5" y="613" width="445.5" height="15.0" fill="rgb(212,216,53)" rx="2" ry="2" />
<text  x="446.47" y="623.5" >start_thread</text>
</g>
<g >
<title>zmq::mailbox_t::send (25 samples, 25.51%)</title><rect x="889.0" y="389" width="301.0" height="15.0" fill="rgb(217,40,6)" rx="2" ry="2" />
<text  x="891.98" y="399.5" >zmq::mailbox_t::send</text>
</g>
<g >
<title>do_softirq.part.17 (36 samples, 36.73%)</title><rect x="10.0" y="309" width="433.5" height="15.0" fill="rgb(232,166,27)" rx="2" ry="2" />
<text  x="13.00" y="319.5" >do_softirq.part.17</text>
</g>
<g >
<title>finish_task_switch (1 samples, 1.02%)</title><rect x="443.5" y="421" width="12.0" height="15.0" fill="rgb(247,162,15)" rx="2" ry="2" />
<text  x="446.47" y="431.5" ></text>
</g>
<g >
<title>zmq::pipe_t::flush (35 samples, 35.71%)</title><rect x="467.6" y="501" width="421.4" height="15.0" fill="rgb(252,83,27)" rx="2" ry="2" />
<text  x="470.55" y="511.5" >zmq::pipe_t::flush</text>
</g>
<g >
<title>tcp_v4_rcv (36 samples, 36.73%)</title><rect x="10.0" y="133" width="433.5" height="15.0" fill="rgb(251,131,2)" rx="2" ry="2" />
<text  x="13.00" y="143.5" >tcp_v4_rcv</text>
</g>
<g >
<title>zmq::dealer_t::sendpipe (25 samples, 25.51%)</title><rect x="889.0" y="485" width="301.0" height="15.0" fill="rgb(205,136,27)" rx="2" ry="2" />
<text  x="891.98" y="495.5" >zmq::dealer_t::sendpipe</text>
</g>
<g >
<title>zmq::session_base_t::flush (35 samples, 35.71%)</title><rect x="467.6" y="517" width="421.4" height="15.0" fill="rgb(209,141,46)" rx="2" ry="2" />
<text  x="470.55" y="527.5" >zmq::session_base_t::flush</text>
</g>
<g >
<title>tcp_write_xmit (36 samples, 36.73%)</title><rect x="10.0" y="437" width="433.5" height="15.0" fill="rgb(207,182,33)" rx="2" ry="2" />
<text  x="13.00" y="447.5" >tcp_write_xmit</text>
</g>
</g>
</svg>
